<?xml version="1.0" standalone="no"?>
<!DOCTYPE svg PUBLIC "-//W3C//DTD SVG 20010904//EN"
 "http://www.w3.org/TR/2001/REC-SVG-20010904/DTD/svg10.dtd">
<svg version="1.0" xmlns="http://www.w3.org/2000/svg"
 width="1189.000000pt" height="786.000000pt" viewBox="0 0 1189.000000 786.000000"
 preserveAspectRatio="xMidYMid meet">

<g transform="translate(0.000000,786.000000) scale(0.100000,-0.100000)"
fill="#000000" stroke="none">
<path d="M239 4859 c0 -1493 -3 -3152 -5 -3687 l-5 -972 698 1 c384 1 688 4
676 6 -27 5 -27 6 -8 60 8 24 18 67 21 95 11 99 61 219 138 338 20 30 36 60
36 66 0 7 15 38 34 70 35 60 80 147 112 219 10 22 33 61 51 87 18 26 35 58 39
72 3 14 17 37 30 51 13 14 24 28 24 31 0 12 83 134 91 134 5 0 14 11 19 25 5
14 17 28 25 31 8 4 15 11 15 17 0 5 21 33 48 62 26 29 56 64 67 79 18 24 61
73 150 172 17 18 40 46 52 61 21 28 70 85 128 151 83 94 190 193 199 185 3 -4
6 -2 6 4 0 12 51 73 60 73 8 0 120 107 120 115 0 3 13 20 30 38 16 18 30 37
30 43 0 7 6 14 13 17 6 2 25 29 41 58 16 30 37 60 47 67 11 7 19 19 19 26 0
11 56 69 166 174 8 7 14 20 14 29 0 20 59 123 70 123 4 0 11 11 14 25 3 13 30
49 60 79 29 31 56 62 60 71 3 8 17 20 31 27 14 6 25 15 25 20 0 15 91 100 147
138 29 19 52 38 53 43 0 4 5 7 10 7 6 0 20 9 33 20 46 42 55 47 80 54 17 4 24
11 21 20 -3 9 3 17 15 21 12 3 21 11 21 16 0 10 -47 -17 -65 -37 -19 -20 -64
-44 -84 -44 -10 0 -22 7 -25 16 -9 22 -7 31 3 16 6 -10 12 -4 20 20 7 18 21
53 31 78 10 25 33 90 51 145 46 143 60 175 82 187 24 12 147 1 147 -14 0 -14
61 -2 78 16 12 11 10 26 -12 94 -14 45 -30 89 -35 99 -5 10 -22 51 -37 92 -24
67 -26 82 -21 173 6 109 17 132 67 143 33 7 70 -10 115 -52 57 -53 64 -57 80
-43 10 9 15 9 15 1 0 -6 -4 -11 -10 -11 -5 0 -10 -7 -10 -15 0 -12 4 -14 19
-5 20 10 40 -3 22 -14 -6 -4 -4 -17 5 -34 7 -15 14 -35 14 -44 0 -10 6 -17 13
-15 6 1 10 -5 8 -13 -9 -37 -11 -54 -5 -40 4 8 12 18 17 22 11 7 19 91 8 84
-3 -2 -15 2 -26 10 -18 13 -17 14 9 14 16 0 25 4 21 10 -4 6 -12 9 -19 8 -6
-2 -11 2 -11 7 0 6 4 9 9 7 4 -1 14 2 21 8 11 9 15 5 19 -22 12 -76 12 -116
-1 -111 -14 6 -16 -2 -17 -59 l-1 -38 56 0 57 0 0 55 c-1 30 5 61 11 69 7 8
10 20 6 26 -9 14 -13 50 -20 167 -3 53 -10 100 -15 103 -6 3 -12 28 -14 56 -2
27 -8 61 -14 77 -7 15 -8 27 -5 27 4 0 2 5 -5 12 -7 7 -12 34 -12 61 0 41 -3
50 -21 54 -15 4 -19 11 -15 26 2 11 -2 30 -11 43 -10 16 -14 44 -12 91 3 81
-7 120 -32 134 -12 6 -19 21 -19 39 0 20 -4 28 -13 24 -20 -7 -35 16 -39 61
-3 40 -3 40 31 40 19 0 36 6 39 13 2 7 9 12 16 12 7 0 23 12 35 26 15 17 29
24 42 21 12 -3 19 0 19 9 0 8 -4 14 -10 14 -17 0 -11 20 8 28 11 4 18 19 19
42 1 21 9 41 21 50 11 9 27 30 35 47 14 26 14 33 1 51 -13 19 -12 21 8 25 l23
4 -22 2 c-23 1 -33 21 -12 21 6 0 8 7 5 16 -4 12 -2 15 9 10 9 -3 15 0 15 9 0
9 6 12 15 9 10 -4 15 0 15 15 0 13 6 21 18 21 13 0 14 2 4 9 -10 6 -6 12 14
26 19 12 29 14 32 7 2 -7 14 -9 29 -6 23 6 24 5 14 -14 -9 -17 -7 -21 12 -26
17 -4 19 -8 10 -17 -9 -9 -19 -10 -37 -1 -20 9 -23 8 -19 -6 2 -9 11 -26 19
-37 15 -20 15 -20 30 -1 14 19 14 19 14 -3 0 -12 -5 -31 -10 -41 -6 -11 -12
-42 -14 -69 -4 -43 -1 -53 16 -65 11 -8 17 -19 13 -25 -6 -11 5 -14 40 -12 44
3 64 12 70 31 3 11 15 20 25 20 10 0 25 9 32 19 13 18 14 18 35 1 12 -10 19
-21 15 -26 -4 -4 5 2 21 13 29 22 62 21 71 -3 3 -8 19 -14 36 -14 16 0 30 -4
30 -10 0 -5 7 -10 15 -10 8 0 15 7 15 15 0 15 -10 19 -40 16 -8 -1 1 12 20 28
38 33 94 45 69 15 -17 -21 5 -36 41 -27 31 7 38 13 17 13 -10 0 -17 6 -18 13
0 6 -2 22 -5 35 -3 15 1 22 11 22 10 0 15 10 15 30 0 17 5 30 11 30 8 0 9 4 0
13 -16 20 -3 27 46 27 31 0 43 -4 41 -12 -3 -7 -11 -13 -18 -13 -23 0 -21 -21
4 -34 31 -17 33 -61 3 -61 -20 0 -20 0 -1 -19 10 -10 25 -16 32 -13 13 5 17
-35 4 -54 -14 -22 -52 -26 -79 -9 -22 15 -25 15 -20 2 3 -9 -1 -21 -8 -27 -18
-15 -10 -30 16 -30 13 0 18 -4 13 -12 -5 -8 0 -9 17 -5 13 4 32 7 42 7 10 0
16 4 13 9 -3 4 6 6 20 3 23 -4 25 -2 20 16 -6 17 -3 19 14 15 11 -3 20 -9 20
-13 0 -11 101 -41 113 -33 5 3 7 16 4 30 -5 29 27 47 56 31 10 -5 21 -8 23 -5
3 2 -9 10 -26 17 -16 7 -30 16 -30 21 0 5 -9 9 -20 9 -17 0 -19 3 -10 19 5 11
10 32 10 46 0 21 4 26 16 21 8 -3 24 -1 34 4 15 8 18 7 14 -3 -5 -14 11 -22
59 -33 17 -4 17 -3 2 12 -24 25 -11 28 39 9 24 -9 49 -14 55 -10 7 4 14 -6 17
-24 5 -24 12 -31 29 -31 15 0 25 7 28 21 5 17 12 20 41 18 26 -3 40 2 55 20
11 12 28 21 37 19 16 -3 14 -7 -9 -30 -35 -36 -35 -49 1 -16 22 21 35 26 68
23 22 -2 47 1 55 6 9 5 10 9 2 9 -22 0 16 58 43 64 32 8 21 26 -17 26 -19 0
-29 -5 -29 -15 0 -8 -5 -15 -10 -15 -6 0 -8 10 -4 24 8 34 -13 42 -36 14 -11
-13 -20 -21 -20 -18 -7 36 -6 78 2 88 12 14 9 15 -62 13 -48 -1 -53 0 -35 11
12 7 19 21 17 30 -2 12 6 19 32 23 24 5 33 11 29 21 -3 8 0 14 7 14 6 0 8 5 5
10 -4 7 3 9 22 5 16 -4 23 -3 17 2 -23 16 -17 93 8 93 5 0 6 -4 3 -10 -3 -5
-1 -10 4 -10 6 0 11 -7 11 -16 0 -8 -4 -12 -10 -9 -25 15 -6 -13 28 -43 49
-43 54 -47 75 -55 22 -8 57 12 57 33 0 8 12 -3 28 -24 22 -31 28 -35 30 -20 6
29 19 39 36 25 8 -7 20 -10 26 -6 15 9 42 -15 36 -31 -3 -8 0 -11 8 -8 15 6
30 -22 20 -37 -3 -5 -12 -9 -20 -9 -17 0 -19 -17 -1 -23 6 -3 -3 -8 -21 -12
-27 -6 -31 -11 -26 -28 5 -17 3 -19 -20 -15 -22 4 -26 2 -26 -18 0 -18 -6 -24
-21 -24 -11 0 -18 -4 -15 -9 3 -5 15 -7 25 -4 13 3 24 -4 37 -26 21 -36 30
-39 37 -11 6 25 25 27 23 3 0 -10 5 -17 12 -16 6 2 12 -2 12 -7 0 -6 -7 -10
-15 -10 -8 0 -15 -4 -15 -10 0 -5 9 -10 19 -10 11 0 23 5 26 10 18 29 71 -7
60 -40 -7 -21 4 -27 20 -11 6 6 18 4 30 -6 20 -15 20 -15 -1 -11 -17 4 -20 2
-17 -13 3 -11 0 -19 -6 -19 -16 0 -13 -30 4 -36 8 -4 12 -10 10 -15 -3 -5 3
-16 15 -26 19 -17 29 -60 11 -48 -16 9 -23 -14 -16 -51 4 -22 10 -32 17 -28 7
4 8 3 4 -4 -4 -7 -16 -12 -27 -12 -10 0 -19 -4 -19 -10 0 -5 8 -10 18 -10 11
0 24 -15 35 -40 10 -24 27 -44 42 -50 27 -10 34 -40 10 -40 -10 0 -15 -11 -15
-35 0 -19 5 -35 10 -35 6 0 10 5 10 10 0 6 9 19 21 31 17 17 19 28 14 60 -4
25 -3 39 4 39 6 0 11 -9 11 -20 0 -12 10 -24 24 -30 19 -7 22 -14 18 -37 -5
-23 -7 -24 -10 -8 -7 35 -22 41 -23 10 -1 -17 -2 -39 -3 -50 -1 -23 -36 -34
-36 -12 0 13 -4 13 -25 4 -14 -7 -25 -18 -25 -26 0 -11 3 -11 15 -1 17 14 35
5 35 -16 0 -8 -4 -12 -10 -9 -6 3 -10 -1 -10 -9 0 -9 5 -16 10 -16 6 0 10 -13
10 -30 0 -30 -13 -40 -24 -17 -4 6 -4 2 -2 -10 2 -13 0 -23 -5 -23 -12 0 -12
-37 0 -44 9 -6 -9 -86 -19 -86 -4 0 -8 -21 -9 -47 -1 -27 -4 -55 -7 -65 -2 -9
0 -19 6 -23 5 -3 10 -16 10 -28 0 -16 -3 -18 -9 -8 -14 21 -22 -4 -11 -33 9
-24 6 -30 -12 -27 -4 0 -5 -5 -3 -12 3 -6 -2 -37 -10 -67 -9 -30 -22 -84 -30
-120 -7 -36 -19 -85 -26 -109 -9 -33 -9 -46 -1 -49 6 -2 9 -9 6 -17 -3 -7 -1
-16 5 -19 6 -4 8 -13 5 -20 -6 -14 22 -30 37 -20 5 3 9 -6 9 -19 0 -27 23 -52
40 -42 5 3 10 -1 10 -10 0 -9 7 -29 14 -44 8 -15 17 -58 20 -96 5 -72 15 -100
17 -44 2 76 9 133 17 141 12 12 22 -80 17 -172 -2 -44 0 -67 5 -55 4 12 11 73
15 138 6 90 5 117 -5 117 -9 0 -10 3 -1 13 6 8 13 36 16 63 3 27 9 58 12 69 4
11 6 27 5 36 -4 22 51 185 87 263 48 101 125 159 181 136 32 -13 55 -47 42
-63 -5 -7 -12 -22 -15 -35 -5 -20 -3 -21 10 -10 14 12 15 5 11 -62 -4 -64 -12
-88 -52 -165 -29 -56 -57 -133 -76 -205 -16 -63 -34 -123 -40 -132 -16 -29
-13 -40 9 -28 25 13 141 13 161 0 13 -8 13 -12 1 -32 -13 -21 -13 -22 3 -9 9
8 18 12 20 10 17 -20 69 -179 61 -187 -9 -9 -79 25 -83 41 -2 9 -9 17 -14 17
-6 0 -7 -7 -4 -16 3 -9 6 -34 6 -57 1 -41 1 -42 15 -17 10 17 14 20 15 9 0 -9
11 -20 25 -23 14 -4 25 -13 25 -20 0 -8 26 -27 58 -43 40 -20 56 -33 54 -46
-2 -11 4 -17 15 -17 10 0 27 -15 38 -32 10 -18 25 -37 32 -41 8 -5 18 -20 24
-34 5 -14 12 -23 16 -20 9 10 33 -42 33 -73 0 -15 -6 -40 -14 -55 -12 -24 -12
-29 2 -46 9 -11 34 -24 55 -30 21 -5 35 -14 32 -19 -4 -6 3 -10 14 -10 32 0
69 -21 74 -41 3 -11 12 -19 21 -19 9 0 16 -8 16 -19 0 -10 7 -24 15 -31 8 -7
15 -19 15 -26 0 -8 11 -16 25 -20 14 -3 25 -10 25 -15 0 -5 6 -9 14 -9 7 0 19
-7 26 -15 7 -8 26 -15 43 -15 17 0 27 -3 24 -7 -4 -3 1 -12 11 -20 12 -10 14
-16 5 -19 -7 -3 -13 -12 -13 -19 0 -7 -8 -16 -17 -19 -32 -13 4 -29 66 -29 33
-1 58 -4 55 -8 -2 -4 3 -12 11 -19 12 -10 15 -9 15 4 0 9 5 16 10 16 6 0 10
-4 10 -9 0 -5 18 -16 40 -25 22 -9 40 -20 40 -25 0 -5 16 -12 35 -15 20 -4 33
-11 30 -15 -3 -5 2 -11 10 -15 8 -3 15 -12 15 -21 0 -13 18 -20 43 -16 4 0 6
-2 5 -6 -3 -10 57 -69 91 -91 14 -9 30 -22 34 -29 4 -7 15 -13 24 -13 9 0 13
-6 9 -15 -3 -9 3 -23 14 -32 11 -10 20 -23 20 -29 0 -6 9 -14 20 -17 12 -3 22
-17 26 -35 4 -19 11 -29 19 -26 7 3 21 -14 34 -41 12 -25 25 -44 29 -41 4 3
19 -27 32 -66 13 -38 30 -72 37 -75 7 -3 13 -13 13 -23 0 -9 8 -24 18 -34 11
-9 25 -41 32 -72 8 -31 20 -62 27 -69 17 -17 17 -25 -1 -25 -9 0 -12 -7 -9
-20 3 -11 12 -20 19 -20 17 0 19 -31 3 -47 -8 -8 -8 -13 0 -17 6 -4 11 -14 11
-23 0 -8 9 -26 20 -40 11 -14 17 -29 14 -34 -3 -5 2 -21 10 -36 8 -16 20 -49
27 -75 8 -27 18 -48 24 -48 5 0 10 -15 11 -32 0 -30 13 -104 30 -180 l6 -28
-55 33 c-32 20 -88 41 -134 51 -43 10 -90 22 -105 26 -16 5 -28 5 -28 1 0 -4
-51 -11 -112 -15 -217 -12 -297 -22 -342 -42 -30 -13 -29 -13 19 -7 28 4 131
7 230 7 99 1 185 4 190 7 13 7 92 4 130 -6 17 -5 36 -15 43 -24 12 -14 13 -14
7 4 -3 11 11 1 34 -24 23 -25 41 -47 41 -51 0 -3 12 -22 26 -41 46 -62 70
-150 47 -173 -5 -4 -8 -114 -8 -244 0 -268 -7 -313 -56 -340 -33 -19 -39 -37
-9 -29 28 7 27 -26 -1 -52 -49 -46 -129 -34 -148 21 -6 17 -11 51 -11 75 0 42
-30 163 -40 163 -3 0 -11 -12 -17 -28 -20 -45 -74 -67 -165 -67 -43 0 -78 -4
-78 -8 0 -17 -47 -53 -83 -66 -21 -7 -62 -11 -90 -9 -48 3 -52 1 -55 -20 -2
-12 -13 -27 -24 -33 -18 -10 -20 -9 -15 5 9 23 -11 20 -58 -9 -30 -18 -54 -25
-94 -25 -50 0 -56 -3 -88 -39 -38 -46 -123 -91 -169 -91 -62 0 -120 73 -111
139 2 20 23 65 46 100 25 39 39 71 36 82 -3 9 -1 20 5 24 6 4 4 19 -6 43 -8
20 -18 70 -21 110 -7 82 4 126 52 212 17 30 45 87 63 125 49 106 140 184 267
229 22 8 32 15 23 15 -14 1 -18 10 -18 40 0 42 -16 98 -35 121 -7 8 -10 21 -8
28 7 17 -17 44 -33 38 -7 -3 -22 6 -33 19 -10 14 -23 25 -28 25 -5 0 -16 12
-25 28 -9 15 -37 49 -62 76 -25 27 -48 58 -52 69 -4 13 -9 16 -16 9 -13 -13 6
-46 58 -97 19 -20 40 -49 46 -65 5 -17 14 -27 19 -24 5 3 13 -6 18 -19 5 -13
17 -27 26 -31 9 -3 14 -10 10 -15 -3 -5 -1 -12 5 -16 6 -4 8 -10 6 -14 -3 -4
-1 -13 5 -21 7 -12 9 -11 9 5 1 19 1 19 11 2 6 -10 9 -23 6 -30 -2 -6 2 -18
10 -25 18 -18 17 -38 -1 -23 -10 9 -15 9 -18 1 -2 -7 -14 -9 -31 -5 -15 4 -25
11 -22 15 3 5 -8 5 -24 0 -24 -7 -29 -5 -24 6 3 8 9 14 14 14 14 0 11 30 -5
46 -23 22 -49 18 -43 -7 9 -35 -9 -68 -32 -62 -20 5 -25 14 -22 41 1 6 -3 12
-9 12 -5 0 -10 -9 -10 -20 0 -27 -17 -25 -23 2 -3 13 -5 7 -4 -12 2 -34 1 -35
-43 -41 -25 -4 -49 -4 -55 -1 -5 3 -29 7 -54 8 -45 3 -84 24 -45 24 16 1 16 3
-6 15 l-25 14 25 2 c23 1 22 2 -7 11 -38 13 -43 27 -10 29 20 1 20 2 2 6 -11
3 -28 12 -37 20 -10 9 -24 13 -33 10 -19 -8 -20 -37 0 -37 8 0 15 -7 15 -15 0
-8 -7 -15 -15 -15 -8 0 -15 7 -15 15 0 8 -4 15 -9 15 -5 0 -11 8 -13 18 -3 15
-6 14 -16 -5 -11 -19 -10 -23 3 -23 32 0 13 -19 -27 -26 l-43 -8 45 -6 c45 -5
63 -28 30 -37 -13 -4 -13 -3 0 6 12 8 5 11 -27 11 -24 0 -43 -5 -46 -12 -3 -9
-19 -3 -50 20 -25 17 -48 32 -51 32 -3 0 -6 -12 -6 -26 0 -15 -4 -23 -11 -19
-6 4 -8 14 -5 22 9 22 -3 36 -20 22 -11 -9 -21 -9 -39 -1 -21 10 -27 8 -40
-11 -8 -12 -15 -27 -15 -34 0 -9 -8 -11 -25 -7 -19 5 -25 2 -25 -9 0 -9 -9
-19 -20 -22 -11 -3 -20 -10 -20 -14 0 -7 -15 -28 -58 -76 -9 -11 -29 -28 -44
-38 -16 -9 -28 -24 -28 -32 0 -8 -8 -15 -18 -15 -11 0 -27 -9 -37 -20 -10 -12
-25 -18 -32 -15 -8 2 -12 1 -9 -4 7 -10 -85 -91 -103 -91 -6 0 -11 -4 -11 -10
0 -19 -39 -49 -73 -55 -23 -5 -39 -16 -52 -37 -10 -17 -13 -28 -6 -24 18 12
13 0 -16 -33 -15 -17 -33 -31 -39 -31 -7 0 -14 -7 -18 -15 -3 -8 -12 -15 -21
-15 -9 0 -15 -9 -15 -24 0 -14 -4 -28 -10 -31 -5 -3 -10 -15 -10 -26 0 -10 -5
-19 -11 -19 -6 0 -9 -7 -5 -15 3 -9 -12 -32 -39 -60 -25 -25 -45 -52 -45 -61
0 -8 -4 -12 -10 -9 -6 3 -10 -4 -10 -16 0 -12 -7 -30 -16 -40 -8 -9 -17 -25
-18 -35 -3 -19 -8 -23 -76 -50 -25 -10 -47 -21 -50 -25 -3 -4 -25 -12 -50 -18
l-45 -11 45 6 c72 8 201 56 213 79 26 49 141 215 149 215 5 0 28 -10 51 -22
23 -12 44 -23 47 -23 3 -1 13 -5 22 -9 9 -4 25 -6 35 -3 13 3 10 6 -12 12 -56
15 -135 56 -135 69 0 7 6 19 14 25 7 6 16 25 19 41 4 16 23 48 43 70 35 39 39
40 80 34 25 -3 49 -1 61 5 14 10 9 11 -27 6 -33 -5 -41 -3 -30 4 8 6 11 11 6
11 -5 0 9 13 30 28 21 16 46 37 54 46 11 14 103 66 117 66 2 0 3 -6 3 -12 0
-7 -17 -21 -38 -30 -20 -10 -29 -16 -20 -14 14 4 16 -2 15 -37 -1 -23 -6 -45
-12 -49 -6 -5 -4 -8 5 -8 13 0 13 -1 0 -10 -8 -5 -10 -10 -5 -10 17 0 30 14
33 35 11 65 15 75 33 75 11 0 20 -7 20 -17 1 -10 5 -2 8 17 4 20 2 38 -4 42
-6 4 -2 13 10 22 11 9 16 16 10 16 -15 2 27 18 48 19 9 1 17 -3 17 -9 0 -5 -8
-7 -17 -4 -17 5 -17 5 0 -6 23 -15 22 -30 -3 -30 -17 0 -18 -4 -10 -25 7 -20
6 -25 -5 -25 -9 0 -15 -10 -15 -25 0 -29 16 -34 23 -7 3 9 5 2 6 -15 0 -18 -4
-33 -10 -33 -6 0 -9 -7 -5 -15 3 -8 1 -15 -4 -15 -6 0 -10 -4 -10 -10 0 -14
19 -12 34 3 12 12 27 62 43 138 3 16 -1 32 -10 41 -11 10 -12 19 -6 25 7 7 0
14 -20 21 -17 6 -31 15 -31 19 0 5 21 22 46 38 25 16 51 37 58 47 7 9 45 31
85 48 57 25 84 30 128 28 55 -3 55 -3 68 -43 16 -47 56 -241 62 -304 8 -66
-32 -202 -63 -215 -22 -10 -64 -75 -64 -99 0 -26 -56 -78 -76 -70 -12 4 -15 3
-10 -5 4 -7 14 -12 22 -12 8 0 14 -5 14 -11 0 -5 4 -7 10 -4 6 3 10 2 10 -4 0
-5 -5 -13 -10 -16 -7 -4 -7 -12 0 -24 5 -10 7 -21 4 -24 -3 -3 -7 -20 -9 -38
-1 -19 -6 -46 -10 -61 -5 -18 -3 -28 4 -28 6 0 11 -7 11 -15 0 -8 -6 -15 -14
-15 -11 0 -13 -9 -9 -34 3 -18 1 -36 -5 -40 -6 -3 -8 -15 -5 -26 4 -15 0 -20
-16 -20 -25 0 -27 -14 -5 -32 8 -7 23 -20 33 -29 16 -14 124 -17 1032 -23
1547 -10 2190 -9 2201 2 5 5 12 34 15 63 3 31 11 58 20 64 12 9 13 16 4 33
-13 24 -14 32 -3 31 22 -4 33 6 61 51 17 28 38 53 46 56 8 4 15 11 15 17 0 19
79 84 117 95 51 16 169 -14 167 -42 -2 -15 0 -16 15 -2 14 13 24 13 86 -1 39
-9 71 -17 73 -18 1 -1 -6 -22 -17 -46 -10 -25 -45 -70 -80 -102 -69 -66 -95
-77 -316 -127 -71 -17 -136 -37 -145 -46 -14 -15 -13 -16 5 -11 51 15 187 46
250 58 39 7 72 16 75 19 3 3 24 12 47 18 24 7 53 23 66 35 13 12 34 31 48 43
44 39 89 109 89 141 0 7 5 13 10 13 6 0 10 -9 10 -20 0 -11 -4 -20 -9 -20 -5
0 -12 -13 -16 -29 -3 -16 -24 -50 -47 -75 -71 -82 -158 -120 -363 -162 -71
-15 -146 -30 -165 -34 -33 -6 -34 -7 -10 -13 14 -4 278 -8 588 -9 l562 -3 0
181 0 181 -40 18 c-47 21 -66 40 -50 50 6 4 19 -4 30 -17 17 -20 21 -21 30 -8
6 10 10 11 10 3 0 -7 5 -13 10 -13 7 0 10 1170 10 3489 l0 3489 -57 4 c-32 3
-356 6 -719 6 -650 1 -662 1 -667 -18 -4 -15 -13 -20 -39 -19 -30 0 -31 1 -10
9 12 5 22 14 22 20 0 11 -13 13 -24 3 -11 -11 -45 -13 -51 -3 -4 6 -158 9
-423 9 -251 -1 -384 -5 -334 -9 45 -4 86 -11 90 -15 4 -4 -5 -6 -20 -3 -23 4
-28 0 -42 -35 -12 -32 -19 -38 -36 -34 -18 5 -20 0 -20 -38 0 -29 -5 -45 -15
-49 -16 -6 -21 -36 -6 -36 10 0 20 -92 11 -100 -3 -3 -11 -18 -18 -33 -17 -40
3 -120 28 -112 20 6 45 -19 35 -35 -4 -6 1 -20 11 -31 20 -23 21 -22 -31 -37
-26 -7 -103 -9 -222 -6 -122 3 -190 1 -210 -7 -39 -16 -85 -21 -78 -9 3 6 2
10 -3 10 -10 0 -34 -46 -47 -89 -6 -18 -9 -20 -16 -10 -7 11 -9 10 -9 -3 0
-10 -6 -18 -12 -19 -26 -1 28 -18 60 -18 21 -1 31 -5 27 -12 -4 -6 -29 -9 -58
-7 -39 2 -51 0 -49 -10 1 -8 -7 -16 -18 -19 -11 -3 -20 -9 -20 -14 0 -5 8 -6
18 -2 9 3 2 -8 -16 -26 -26 -25 -33 -39 -30 -64 2 -26 8 -33 28 -35 19 -2 29
5 41 25 10 18 43 42 93 67 64 32 89 39 149 42 66 3 68 2 22 -5 -58 -10 -144
-48 -152 -68 -3 -7 -11 -13 -19 -13 -8 0 -14 -4 -14 -10 0 -16 13 -12 64 20
27 17 62 34 79 37 l31 6 -22 -28 c-26 -33 -30 -109 -7 -139 30 -40 17 -47 -35
-21 -28 14 -50 21 -50 15 0 -6 12 -15 28 -21 15 -6 40 -17 56 -25 16 -8 34
-14 41 -14 7 0 27 -8 45 -17 19 -9 48 -17 64 -17 17 -1 36 -5 43 -9 6 -4 18
-4 27 -1 9 3 24 3 34 -1 16 -7 15 -8 -3 -16 -16 -6 -13 -8 15 -7 48 2 101 -11
119 -29 9 -10 30 -14 62 -11 34 2 50 -1 54 -10 7 -20 6 -22 -10 -22 -19 0 -19
-4 1 -43 13 -23 14 -32 4 -35 -6 -2 -20 -22 -30 -44 -17 -39 -18 -40 -29 -19
-13 23 -31 20 -31 -5 0 -8 7 -14 15 -14 8 0 15 -5 15 -11 0 -6 -9 -8 -20 -4
-14 5 -20 2 -20 -9 0 -9 -4 -16 -10 -16 -13 0 -13 -47 0 -55 8 -5 8 -11 0 -20
-6 -7 -8 -20 -4 -29 3 -9 1 -16 -5 -16 -7 0 -14 -8 -18 -17 -3 -10 -15 -38
-25 -61 -11 -24 -17 -51 -14 -59 6 -14 -4 -30 -37 -61 -9 -9 -17 -22 -17 -29
0 -6 -16 -29 -35 -50 -19 -21 -35 -41 -35 -45 0 -14 -63 -68 -78 -68 -9 0 -13
-7 -9 -20 3 -11 1 -23 -4 -26 -5 -3 -7 -10 -3 -15 7 -12 -234 -249 -254 -249
-3 0 -20 -11 -37 -25 -18 -13 -35 -22 -38 -19 -7 7 -87 -46 -87 -58 0 -6 -7
-8 -15 -4 -8 3 -21 -3 -28 -15 -8 -11 -21 -17 -29 -14 -10 4 -17 -1 -21 -14
-3 -12 -13 -21 -24 -21 -10 0 -24 -9 -31 -21 -8 -12 -19 -18 -28 -15 -8 3 -14
1 -14 -4 0 -16 -40 -48 -68 -55 -15 -3 -39 -18 -54 -32 -17 -17 -42 -27 -72
-30 -25 -3 -46 -9 -46 -12 0 -12 -174 -5 -197 7 -51 27 -63 32 -77 32 -14 0
-81 27 -157 63 -25 12 -58 39 -75 59 -16 20 -35 37 -41 38 -7 0 -13 7 -13 15
0 9 -7 18 -15 21 -8 4 -12 10 -9 15 3 5 -4 22 -15 38 -12 16 -21 36 -21 45 0
9 -4 16 -9 16 -5 0 -12 15 -16 33 -4 17 -14 43 -22 56 -13 20 -13 25 -2 32 11
7 11 9 -2 9 -10 0 -20 15 -28 40 -6 22 -15 40 -20 40 -4 0 -14 18 -21 40 -7
22 -17 40 -22 40 -4 0 -8 8 -8 18 0 10 -6 27 -14 38 -8 11 -16 31 -18 44 -2
14 -8 24 -14 23 -13 -2 -38 91 -69 260 -2 9 1 17 6 17 5 0 9 8 9 18 0 13 -2
14 -9 3 -5 -8 -7 5 -3 35 3 27 11 55 19 62 15 15 18 42 4 42 -14 0 -22 102
-11 140 6 19 15 76 20 126 10 94 14 107 55 184 14 25 25 52 25 60 0 9 4 20 8
25 8 9 17 38 43 138 6 23 13 48 15 55 2 7 8 11 12 8 5 -3 6 9 4 26 -3 20 -1
29 6 24 6 -3 14 -1 18 5 4 7 14 -4 25 -28 26 -57 46 -71 65 -47 14 19 15 18
30 -3 9 -13 27 -23 40 -23 13 0 24 -5 24 -11 0 -5 5 -7 10 -4 6 3 10 2 10 -4
0 -6 13 -17 29 -25 25 -13 30 -13 34 -1 5 12 -50 55 -72 55 -4 0 -14 11 -21
25 -7 14 -17 25 -22 25 -10 0 -38 62 -38 85 0 8 7 15 15 15 8 0 15 4 15 9 0
12 86 41 122 41 15 0 28 -2 28 -4 0 -3 -13 -18 -30 -34 -42 -43 -44 -104 -4
-163 13 -19 24 -40 24 -46 0 -17 27 -36 35 -23 3 5 1 10 -4 10 -27 0 -7 15 21
17 73 5 126 54 135 124 5 36 7 38 23 24 9 -8 27 -38 40 -65 13 -28 27 -50 31
-50 9 0 -8 48 -23 65 -4 5 -8 16 -8 25 0 9 -11 30 -25 46 -32 37 -32 50 0 20
14 -13 25 -28 25 -35 0 -6 7 -11 15 -11 8 0 15 -7 15 -15 0 -8 4 -15 9 -15 9
0 41 -88 41 -114 0 -25 38 -54 65 -48 20 3 25 10 25 36 0 54 -11 78 -31 73
-15 -4 -19 0 -19 19 0 24 -19 35 -21 12 0 -7 -5 -2 -10 11 -7 18 -6 27 3 33
10 6 9 8 -3 8 -9 0 -22 11 -29 25 -7 14 -22 25 -32 25 -10 0 -24 11 -30 25 -6
14 -17 25 -25 25 -7 0 -21 4 -31 9 -45 23 -107 35 -212 43 -8 0 -19 4 -25 8
-13 9 -106 7 -122 -3 -8 -5 -13 -3 -13 5 0 10 -2 10 -9 -1 -14 -22 -50 -21
-57 2 -3 11 -1 23 5 27 6 3 13 21 14 38 2 25 6 31 20 26 12 -4 17 0 17 15 0
16 7 21 28 22 34 2 34 2 55 -6 14 -6 16 -3 10 11 -6 17 -5 17 17 1 14 -9 29
-17 35 -17 5 0 3 4 -5 10 -33 20 2 21 42 0 52 -27 79 -50 72 -61 -3 -5 1 -9 9
-9 8 0 17 -6 20 -14 3 -7 26 -23 51 -36 25 -12 46 -28 46 -36 0 -9 11 -14 30
-14 18 0 33 -6 36 -15 4 -8 14 -15 23 -15 9 0 29 -7 45 -15 15 -8 37 -15 47
-15 11 0 19 -7 19 -16 0 -14 2 -14 15 0 20 20 11 57 -29 113 -24 35 -36 43
-56 41 -19 -2 -26 2 -28 20 -2 12 -10 22 -17 22 -8 0 -19 9 -25 20 -6 11 -30
28 -53 39 -23 11 -53 31 -66 45 -13 14 -36 28 -52 31 -15 4 -33 13 -40 21 -6
8 -19 14 -27 14 -13 0 -12 3 4 15 18 14 18 14 -7 15 -24 0 -44 26 -40 53 1 4
-9 7 -21 7 -22 0 -22 1 6 25 l29 25 -404 0 c-222 1 -548 3 -724 6 -176 2
-1517 9 -2980 15 -1463 6 -2830 13 -3037 16 l-378 5 -1 -2713z m7468 2645 c-3
-3 -12 -4 -19 -1 -8 3 -5 6 6 6 11 1 17 -2 13 -5z m23 -59 c0 -8 -4 -15 -8
-15 -5 0 -9 7 -9 15 0 8 4 15 9 15 4 0 8 -7 8 -15z m2465 -5 c8 -24 -3 -43
-20 -36 -7 2 -16 2 -19 -1 -3 -4 -17 -7 -30 -9 -21 -2 -24 2 -23 22 2 29 22
44 59 44 18 0 29 -6 33 -20z m-2230 -389 c-6 -5 -25 10 -25 20 0 5 6 4 14 -3
8 -7 12 -15 11 -17z m-563 -61 c18 0 0 -149 -26 -220 -36 -100 -43 -115 -60
-129 -14 -12 -16 -11 -16 8 0 11 5 21 10 21 16 0 11 47 -7 66 -16 16 -16 16 5
10 12 -4 22 -3 22 2 0 5 -10 13 -22 17 -20 6 -21 8 -5 12 11 3 16 11 13 21 -3
9 -1 24 4 32 5 8 10 10 10 4 0 -7 6 -14 13 -17 9 -3 12 5 9 30 -3 20 0 38 7
42 6 4 14 40 18 81 4 41 9 63 11 48 2 -16 8 -28 14 -28z m476 -32 c-3 -7 -11
-13 -18 -13 -7 0 -15 6 -17 13 -3 7 4 12 17 12 13 0 20 -5 18 -12z m-521 -50
c-3 -7 -5 -2 -5 12 0 14 2 19 5 13 2 -7 2 -19 0 -25z m1876 -85 c-7 -2 -19 -2
-25 0 -7 3 -2 5 12 5 14 0 19 -2 13 -5z m-230 -26 c11 11 168 13 187 3 14 -7
20 -7 20 0 0 11 29 13 54 4 9 -3 14 -10 11 -14 -3 -4 7 -11 20 -14 14 -4 23
-11 20 -16 -3 -5 0 -12 8 -17 7 -4 21 -21 31 -37 15 -23 16 -30 5 -37 -11 -7
-10 -9 3 -9 15 0 15 -3 2 -27 -7 -16 -14 -34 -14 -40 0 -7 -5 -13 -11 -13 -15
0 -89 76 -82 84 4 3 -2 6 -13 6 -30 1 -55 25 -48 45 6 15 4 16 -14 6 -29 -16
-40 -14 -47 9 -5 16 -10 18 -25 10 -10 -6 -25 -10 -32 -9 -11 0 -11 2 0 6 9 3
4 10 -13 19 -15 8 -31 11 -36 8 -11 -6 -79 25 -79 37 0 5 11 4 24 -1 13 -5 26
-6 29 -3z m-173 -17 c0 -5 -7 -10 -15 -10 -8 0 -15 5 -15 10 0 6 7 10 15 10 8
0 15 -4 15 -10z m338 -161 c27 -33 66 -99 57 -99 -3 0 -7 0 -10 0 -3 0 -18 -6
-33 -13 -15 -8 -52 -17 -82 -20 l-55 -6 31 27 c40 34 54 61 54 106 0 20 3 36
6 36 3 0 17 -14 32 -31z m-166 -4 c0 -5 -5 -11 -11 -13 -6 -2 -11 4 -11 13 0
9 5 15 11 13 6 -2 11 -8 11 -13z m-1710 -37 c-8 -8 -9 -4 -5 13 4 13 8 18 11
10 2 -7 -1 -18 -6 -23z m2098 -4 c0 -2 -7 -4 -15 -4 -8 0 -15 4 -15 10 0 5 7
7 15 4 8 -4 15 -8 15 -10z m0 -29 c0 -2 -7 -5 -15 -9 -9 -3 -15 0 -15 9 0 9 6
12 15 9 8 -4 15 -7 15 -9z m-430 -45 c0 -5 -4 -10 -9 -10 -6 0 -13 5 -16 10
-3 6 1 10 9 10 9 0 16 -4 16 -10z m400 6 c0 -11 -19 -15 -25 -6 -3 5 1 10 9
10 9 0 16 -2 16 -4z m-290 -52 c0 -2 -7 -4 -15 -4 -8 0 -15 4 -15 10 0 5 7 7
15 4 8 -4 15 -8 15 -10z m-8486 0 c9 -3 16 -11 16 -16 0 -7 -5 -6 -13 1 -8 6
-16 8 -19 5 -3 -3 -9 -1 -13 5 -7 12 5 14 29 5z m9406 -92 c0 -5 -11 -19 -25
-32 -29 -27 -33 -19 -7 15 17 25 32 32 32 17z m-233 -129 c22 -26 25 -26 34
-10 5 9 17 17 24 17 8 0 15 6 16 13 0 6 4 2 9 -10 19 -46 -40 -153 -105 -192
-38 -22 -69 -19 -38 4 17 13 15 15 -22 30 -31 14 -43 15 -58 5 -10 -6 -21 -9
-24 -7 -7 8 39 47 55 47 8 0 13 9 12 23 -1 12 -2 37 -1 55 1 27 5 32 26 32 14
0 25 5 25 10 0 19 23 10 47 -17z m-4127 -43 c13 -9 13 -10 0 -10 -8 0 -22 5
-30 10 -13 9 -13 10 0 10 8 0 22 -5 30 -10z m55 -26 c20 -15 20 -16 -4 -12
-14 2 -26 9 -29 16 -5 16 9 15 33 -4z m-58 0 c-3 -3 -12 -4 -19 -1 -8 3 -5 6
6 6 11 1 17 -2 13 -5z m3958 -14 c-3 -5 -11 -10 -16 -10 -6 0 -7 5 -4 10 3 6
11 10 16 10 6 0 7 -4 4 -10z m-3963 -72 c-7 -7 -12 -8 -12 -2 0 14 12 26 19
19 2 -3 -1 -11 -7 -17z m56 16 c25 -7 30 -24 7 -24 -8 0 -15 -4 -15 -10 0 -21
-18 -9 -22 15 -6 27 -4 28 30 19z m-158 -54 c0 -5 -7 -7 -15 -4 -8 4 -15 8
-15 10 0 2 7 4 15 4 8 0 15 -4 15 -10z m-343 -6 c-3 -3 -12 -4 -19 -1 -8 3 -5
6 6 6 11 1 17 -2 13 -5z m468 -14 c-3 -5 -13 -10 -21 -10 -8 0 -14 5 -14 10 0
6 9 10 21 10 11 0 17 -4 14 -10z m3953 4 c12 -4 22 -11 22 -16 0 -10 -58 -68
-68 -68 -3 0 -13 -6 -21 -14 -22 -20 -57 4 -46 31 5 10 9 21 9 25 2 14 46 39
56 33 6 -3 10 -1 10 4 0 12 6 13 38 5z m-3552 -39 c4 -8 12 -15 20 -15 8 0 14
-4 14 -10 0 -5 -9 -10 -19 -10 -11 0 -23 5 -26 10 -3 6 -17 10 -30 10 -25 0
-39 12 -28 24 13 12 64 6 69 -9z m44 5 c0 -5 -4 -10 -10 -10 -5 0 -10 5 -10
10 0 6 5 10 10 10 6 0 10 -4 10 -10z m23 -16 c-9 -15 -19 -21 -21 -15 -4 13
16 41 29 41 5 0 2 -12 -8 -26z m-173 -19 c0 -17 -15 -18 -45 -4 -19 9 -18 9 3
5 12 -2 22 0 22 5 0 5 5 9 10 9 6 0 10 -7 10 -15z m-233 -11 c-3 -3 -12 -4
-19 -1 -8 3 -5 6 6 6 11 1 17 -2 13 -5z m298 -4 c-3 -5 -15 -10 -26 -10 -10 0
-19 5 -19 10 0 6 12 10 26 10 14 0 23 -4 19 -10z m-771 -30 c-17 -33 -16 -32
-38 -24 -13 5 -14 9 -5 20 6 8 18 14 26 14 8 0 11 5 8 10 -3 6 0 10 9 10 13 0
13 -4 0 -30z m926 20 c0 -5 -9 -10 -21 -10 -11 0 -17 5 -14 10 3 6 13 10 21
10 8 0 14 -4 14 -10z m201 -5 c27 -11 29 -14 12 -15 -28 0 -53 10 -53 21 0 12
2 12 41 -6z m-1074 -21 c-3 -3 -12 -4 -19 -1 -8 3 -5 6 6 6 11 1 17 -2 13 -5z
m533 -24 c0 -5 -2 -10 -4 -10 -3 0 -8 5 -11 10 -3 6 -1 10 4 10 6 0 11 -4 11
-10z m-782 -91 c-3 -8 -7 -3 -11 10 -4 17 -3 21 5 13 5 -5 8 -16 6 -23z m151
-4 c6 3 11 -1 11 -9 0 -9 -4 -16 -9 -16 -5 0 -16 -6 -24 -14 -22 -23 -52 -10
-54 24 -2 23 3 29 20 32 12 2 27 -2 34 -10 6 -8 16 -11 22 -7z m79 3 c-3 -7
-17 -15 -33 -16 -25 -3 -27 -2 -16 12 16 19 55 22 49 4z m476 -14 c15 -14 14
-18 -6 -39 -17 -17 -26 -21 -35 -13 -18 14 -16 35 3 42 8 3 12 10 9 16 -10 16
12 12 29 -6z m-394 -2 c0 -5 -12 -15 -26 -22 -19 -11 -24 -20 -21 -37 2 -13 0
-23 -4 -23 -5 0 -9 16 -9 36 0 21 4 33 10 29 6 -3 10 -2 10 4 0 5 8 12 18 14
9 3 18 5 20 6 1 0 2 -3 2 -7z m255 -22 c3 -5 -3 -10 -14 -10 -12 0 -21 5 -21
10 0 6 6 10 14 10 8 0 18 -4 21 -10z m63 -26 c-12 -12 -17 -12 -33 1 -19 14
-19 14 8 15 15 0 27 6 28 13 0 9 2 8 6 -1 3 -8 -1 -20 -9 -28z m915 29 c9 -9
-12 -33 -29 -33 -12 0 -12 4 -2 20 14 21 21 24 31 13z m-1329 -33 c11 0 16 -3
13 -6 -3 -4 0 -16 8 -28 17 -24 19 -46 5 -46 -5 0 -10 8 -10 18 0 11 -9 27
-20 37 -19 18 -20 17 -20 -3 0 -12 -4 -22 -8 -22 -14 0 -13 -83 0 -91 7 -5 9
-11 5 -16 -4 -4 -16 -2 -25 5 -9 7 -24 15 -33 18 -10 3 -15 19 -16 44 -1 30 3
39 19 43 12 4 17 10 13 17 -4 7 -15 10 -26 7 -15 -4 -16 -2 -6 15 10 15 19 18
47 14 19 -3 44 -6 54 -6z m459 -26 c11 -12 -4 -26 -16 -15 -7 5 -23 11 -37 14
-19 3 -17 5 11 6 20 0 39 -2 42 -5z m-600 -11 c4 -3 -1 -12 -11 -20 -16 -13
-15 -14 6 -8 16 5 22 2 22 -9 0 -9 -6 -16 -12 -17 -7 0 -4 -4 7 -9 16 -7 17
-9 3 -9 -20 -1 -62 54 -53 69 7 11 28 13 38 3z m217 -18 c0 -8 -4 -15 -10 -15
-5 0 -10 7 -10 15 0 8 5 15 10 15 6 0 10 -7 10 -15z m588 -4 c3 -8 -1 -12 -9
-9 -7 2 -15 10 -17 17 -3 8 1 12 9 9 7 -2 15 -10 17 -17z m-1288 -11 c0 -5 -4
-10 -10 -10 -5 0 -10 5 -10 10 0 6 5 10 10 10 6 0 10 -4 10 -10z m1420 0 c0
-13 -20 -13 -40 0 -12 8 -9 10 13 10 15 0 27 -4 27 -10z m-1490 -10 c0 -5 -4
-10 -10 -10 -5 0 -10 5 -10 10 0 6 5 10 10 10 6 0 10 -4 10 -10z m995 -10 c3
-5 -1 -10 -9 -10 -9 0 -16 5 -16 10 0 6 4 10 9 10 6 0 13 -4 16 -10z m-1035
-4 c0 -3 -4 -8 -10 -11 -5 -3 -10 -1 -10 4 0 6 5 11 10 11 6 0 10 -2 10 -4z
m27 -31 c-4 -8 -11 -15 -17 -15 -14 0 -13 27 3 33 16 6 21 1 14 -18z m140 3
c-3 -8 -6 -5 -6 6 -1 11 2 17 5 13 3 -3 4 -12 1 -19z m550 0 c-3 -8 -6 -5 -6
6 -1 11 2 17 5 13 3 -3 4 -12 1 -19z m449 9 c8 3 14 1 14 -5 0 -5 -6 -12 -14
-15 -14 -6 -36 10 -36 27 0 6 5 5 11 -1 6 -6 18 -9 25 -6z m-1200 -34 c-10
-10 -19 5 -10 18 6 11 8 11 12 0 2 -7 1 -15 -2 -18z m44 -24 c0 -5 -4 -9 -10
-9 -5 0 -10 7 -10 16 0 8 5 12 10 9 6 -3 10 -10 10 -16z m1084 1 c4 -5 5 -13
2 -19 -8 -12 -56 15 -56 31 0 10 39 1 54 -12z m-1077 -26 c-3 -3 -12 -4 -19
-1 -8 3 -5 6 6 6 11 1 17 -2 13 -5z m73 -34 c0 -5 -4 -10 -10 -10 -5 0 -10 5
-10 10 0 6 5 10 10 10 6 0 10 -4 10 -10z m2110 0 c0 -5 -5 -10 -11 -10 -5 0
-7 5 -4 10 3 6 8 10 11 10 2 0 4 -4 4 -10z m2150 -354 c0 -3 -4 -8 -10 -11 -5
-3 -10 -1 -10 4 0 6 5 11 10 11 6 0 10 -2 10 -4z m-4353 -38 c-3 -8 -6 -5 -6
6 -1 11 2 17 5 13 3 -3 4 -12 1 -19z m4270 2 c-1 -12 -8 -20 -17 -19 -22 3
-51 -12 -44 -22 3 -5 -10 -8 -28 -8 -48 2 -129 -12 -160 -27 -29 -15 -71 -8
-46 7 7 5 24 9 38 9 14 1 68 19 120 40 111 45 139 49 137 20z m-1907 -40 c0
-5 -4 -10 -10 -10 -5 0 -10 5 -10 10 0 6 5 10 10 10 6 0 10 -4 10 -10z m1930
-50 c0 -5 -5 -10 -11 -10 -5 0 -7 5 -4 10 3 6 8 10 11 10 2 0 4 -4 4 -10z
m-90 -10 c0 -5 -8 -10 -17 -10 -15 -1 -13 -5 10 -25 26 -23 37 -43 18 -30 -5
3 -12 -4 -16 -15 -3 -11 -17 -25 -29 -32 -90 -50 -106 -58 -113 -56 -13 3 -96
-25 -119 -39 -12 -7 -29 -11 -37 -7 -12 4 -20 -2 -27 -20 -6 -16 -15 -24 -24
-20 -8 3 -17 1 -21 -5 -3 -7 3 -11 15 -11 13 0 20 -5 17 -12 -2 -8 -15 -12
-30 -10 -25 3 -39 -12 -17 -20 5 -1 7 -13 4 -25 -4 -16 -16 -24 -40 -29 -24
-4 -34 -12 -34 -25 0 -11 -4 -19 -10 -19 -5 0 -10 -7 -10 -15 0 -8 -6 -12 -14
-9 -7 3 -21 -3 -31 -12 -14 -14 -21 -15 -36 -6 -11 7 -20 8 -24 2 -3 -6 -26
-10 -49 -10 -40 0 -43 -2 -43 -25 0 -32 0 -31 -45 -39 -31 -6 -37 -4 -32 8 3
8 -9 30 -30 52 -20 21 -34 44 -32 50 13 33 17 102 7 108 -6 4 -11 16 -11 26 0
13 -5 17 -15 14 -18 -7 -20 7 -2 25 10 10 7 17 -15 35 -16 12 -28 27 -28 34 0
7 -4 12 -10 12 -5 0 -10 15 -10 33 0 18 -4 37 -10 43 -6 6 -5 19 4 36 8 15 11
30 8 34 -4 4 2 4 13 -1 54 -21 200 -54 285 -64 117 -14 121 -13 470 48 31 5
71 16 90 24 19 9 36 16 38 16 1 1 2 -3 2 -9z m-910 -104 c0 -3 -4 -8 -10 -11
-5 -3 -10 -1 -10 4 0 6 5 11 10 11 6 0 10 -2 10 -4z m918 -89 c-7 -14 -16 -17
-34 -13 -24 6 -35 -9 -12 -16 7 -3 -9 -11 -35 -18 -26 -8 -47 -17 -47 -21 0
-12 -31 -19 -56 -13 -28 7 -23 24 7 24 16 0 19 4 14 21 -7 21 -5 22 36 15 31
-4 39 -3 29 4 -12 8 -11 10 8 10 12 0 22 4 22 9 0 10 30 18 62 17 13 0 14 -4
6 -19z m-1891 -64 c-3 -10 -5 -4 -5 12 0 17 2 24 5 18 2 -7 2 -21 0 -30z
m-6027 7 c0 -5 -4 -10 -10 -10 -5 0 -10 5 -10 10 0 6 5 10 10 10 6 0 10 -4 10
-10z m9457 -236 c2 -6 -3 -11 -12 -11 -8 0 -15 7 -15 15 0 15 22 12 27 -4z
m93 -23 c0 -21 -13 -41 -26 -41 -8 0 -14 4 -14 9 0 5 -3 16 -6 25 -5 12 0 16
20 16 14 0 26 -4 26 -9z m-86 -37 c9 -3 16 -12 16 -20 0 -18 81 -19 98 -2 9 9
12 9 12 0 0 -7 16 -12 40 -12 36 0 40 -3 40 -25 0 -18 4 -23 15 -19 15 6 17 2
19 -51 1 -20 8 -33 22 -39 16 -7 24 -22 28 -55 3 -25 15 -61 26 -79 24 -38 25
-70 5 -96 -17 -22 -20 -66 -5 -66 6 0 10 7 10 15 0 32 18 13 24 -25 3 -22 11
-40 18 -40 14 0 4 -110 -11 -119 -6 -4 -10 -15 -9 -26 0 -11 -3 -37 -7 -57 -6
-31 -4 -38 9 -38 18 0 22 -35 6 -45 -5 -3 -10 -21 -10 -40 0 -39 -14 -52 -36
-34 -10 8 -13 21 -9 40 3 15 1 30 -4 34 -7 3 -11 -2 -11 -14 0 -12 -5 -21 -11
-21 -8 0 -8 -4 0 -14 7 -8 13 -41 13 -73 0 -45 2 -53 9 -35 9 24 29 22 29 -4
0 -8 5 -14 10 -14 12 0 32 48 25 60 -3 4 4 6 15 3 17 -4 18 -8 7 -17 -15 -12
-34 -72 -40 -121 -3 -23 -4 -21 -6 11 0 23 -8 47 -16 54 -13 11 -15 6 -15 -39
0 -39 -4 -51 -15 -51 -11 0 -15 -11 -15 -40 0 -33 -3 -40 -20 -40 -14 0 -18
-5 -13 -16 4 -12 14 -14 37 -11 17 3 25 3 19 0 -17 -6 -16 -24 2 -59 17 -32
20 -74 6 -74 -6 0 -11 15 -13 33 l-4 32 -12 -43 c-15 -50 -5 -72 34 -72 13 0
24 -4 24 -10 0 -5 -4 -10 -10 -10 -5 0 -10 -9 -10 -21 0 -11 -5 -30 -11 -42
-9 -16 -9 -22 0 -25 6 -2 11 -22 11 -44 0 -28 -4 -39 -12 -35 -10 3 -12 -8
-11 -42 1 -25 0 -39 -3 -30 -3 9 -16 21 -29 27 -15 7 -25 20 -25 32 0 11 -7
20 -15 20 -10 0 -15 -11 -15 -35 l0 -36 -56 2 c-38 2 -59 -2 -66 -12 -7 -10
-8 -9 -3 6 17 46 17 57 4 66 -10 6 -6 9 14 9 33 0 37 27 5 32 -26 3 -22 23 5
22 9 0 17 3 17 8 0 4 -7 8 -15 8 -8 0 -15 7 -15 15 0 9 7 18 15 21 8 4 15 15
15 25 0 13 5 17 18 13 9 -3 5 3 -11 13 -32 21 -32 49 0 45 29 -4 37 24 13 48
-10 10 -26 30 -36 45 -15 24 -15 27 0 44 17 19 22 91 6 91 -5 0 -10 -4 -10
-10 0 -22 -22 -8 -33 20 -6 17 -15 30 -19 30 -4 0 -8 9 -8 20 0 11 -6 20 -13
20 -18 0 -35 38 -43 100 -4 28 -11 53 -15 56 -5 3 -9 24 -9 48 0 23 -6 48 -12
54 -10 10 -10 15 2 22 10 7 11 13 5 18 -18 13 -35 60 -23 64 7 3 7 12 -2 28
-15 29 -32 94 -32 129 0 14 -7 25 -19 28 -23 6 -23 10 -4 29 18 18 21 59 3 48
-7 -5 -9 -2 -5 9 3 9 -1 18 -10 21 -14 6 -14 8 3 21 18 13 18 14 1 44 -17 29
-16 71 1 71 4 0 13 4 21 9 10 7 11 13 1 31 -9 17 -9 25 4 39 9 10 16 23 16 30
0 6 7 14 15 17 10 4 15 20 15 45 0 21 5 39 10 39 6 0 10 9 10 20 0 21 8 24 34
14z m221 -4 c3 -5 1 -10 -4 -10 -6 0 -11 5 -11 10 0 6 2 10 4 10 3 0 8 -4 11
-10z m65 0 c0 -5 -5 -10 -11 -10 -5 0 -7 5 -4 10 3 6 8 10 11 10 2 0 4 -4 4
-10z m-3 -52 c-3 -8 -6 -5 -6 6 -1 11 2 17 5 13 3 -3 4 -12 1 -19z m-5952
-178 c4 -6 -5 -10 -19 -10 -14 0 -26 5 -26 10 0 6 9 10 19 10 11 0 23 -4 26
-10z m35 0 c0 -5 -5 -10 -11 -10 -5 0 -7 5 -4 10 3 6 8 10 11 10 2 0 4 -4 4
-10z m3680 -30 c0 -11 -7 -20 -15 -20 -18 0 -19 12 -3 28 16 16 18 15 18 -8z
m-3670 0 c0 -5 -5 -10 -11 -10 -5 0 -7 5 -4 10 3 6 8 10 11 10 2 0 4 -4 4 -10z
m3594 -9 c4 -5 -3 -7 -14 -4 -23 6 -26 13 -6 13 8 0 17 -4 20 -9z m31 -31 c3
-5 -1 -10 -10 -10 -9 0 -13 5 -10 10 3 6 8 10 10 10 2 0 7 -4 10 -10z m-21
-45 c-4 -10 -14 -13 -33 -9 -21 5 -23 3 -11 -6 13 -10 12 -11 -3 -6 -10 3 -26
6 -35 7 -9 1 3 7 28 14 60 17 60 17 54 0z m-164 -5 c0 -5 -5 -10 -11 -10 -5 0
-7 5 -4 10 3 6 8 10 11 10 2 0 4 -4 4 -10z m2570 -4 c0 -3 -4 -8 -10 -11 -5
-3 -10 -1 -10 4 0 6 5 11 10 11 6 0 10 -2 10 -4z m-2400 -21 c-7 -8 -18 -15
-24 -15 -6 0 -2 7 8 15 25 19 32 19 16 0z m-52 -24 c3 -8 -1 -12 -9 -9 -7 2
-15 10 -17 17 -3 8 1 12 9 9 7 -2 15 -10 17 -17z m-1358 -6 c0 -8 -4 -15 -10
-15 -5 0 -10 7 -10 15 0 8 5 15 10 15 6 0 10 -7 10 -15z m1324 -13 c3 -5 -17
-18 -45 -29 -27 -12 -49 -17 -49 -12 0 5 11 11 24 15 14 3 27 12 30 20 6 15
32 19 40 6z m-110 -23 c-3 -5 -14 -9 -25 -9 -26 0 -24 -18 4 -23 19 -4 19 -4
2 -5 -26 -2 -55 17 -37 25 6 2 10 8 8 11 -2 4 9 7 25 8 15 1 26 -3 23 -7z
m-161 -26 c-7 -2 -19 -2 -25 0 -7 3 -2 5 12 5 14 0 19 -2 13 -5z m102 -13 c3
-5 -1 -10 -9 -10 -9 0 -16 5 -16 10 0 6 4 10 9 10 6 0 13 -4 16 -10z m-45 -27
c-8 -3 -23 -10 -32 -15 -14 -6 -16 -5 -12 7 4 8 18 15 33 14 15 0 20 -3 11 -6z
m-120 -33 c0 -5 -7 -10 -16 -10 -8 0 -12 5 -9 10 3 6 10 10 16 10 5 0 9 -4 9
-10z m-75 -10 c-3 -5 -12 -10 -18 -10 -7 0 -6 4 3 10 19 12 23 12 15 0z m-49
-18 c-10 -2 -22 0 -28 6 -6 6 0 7 19 4 21 -5 23 -7 9 -10z m-109 -18 c-3 -3
-12 -4 -19 -1 -8 3 -5 6 6 6 11 1 17 -2 13 -5z m3073 -94 c0 -5 -9 -10 -20
-10 -11 0 -20 5 -20 10 0 6 9 10 20 10 11 0 20 -4 20 -10z m-60 -240 c0 -5 -2
-10 -4 -10 -3 0 -8 5 -11 10 -3 6 -1 10 4 10 6 0 11 -4 11 -10z m78 -243 c2
-9 -1 -17 -7 -17 -6 0 -11 6 -11 14 0 8 -6 17 -12 20 -7 3 -4 5 7 3 11 -1 21
-10 23 -20z m-81 -89 c-3 -8 -6 -5 -6 6 -1 11 2 17 5 13 3 -3 4 -12 1 -19z
m23 -49 c0 -5 -4 -9 -10 -9 -5 0 -10 7 -10 16 0 8 5 12 10 9 6 -3 10 -10 10
-16z m474 -23 c-5 -12 -10 -14 -20 -5 -10 8 -11 14 -1 24 15 17 30 4 21 -19z
m-737 18 c-3 -3 -12 -4 -19 -1 -8 3 -5 6 6 6 11 1 17 -2 13 -5z m263 -24 c0
-5 -18 -10 -40 -10 -22 0 -40 5 -40 10 0 6 18 10 40 10 22 0 40 -4 40 -10z
m15 -120 c3 -11 13 -20 20 -20 8 0 17 -11 21 -25 3 -14 12 -25 19 -25 17 0 25
-33 13 -54 -6 -10 -22 -16 -48 -16 -33 0 -40 3 -40 20 0 15 7 20 25 20 16 0
25 6 25 15 0 8 -5 15 -10 15 -6 0 -15 11 -20 25 -9 23 -33 37 -27 16 1 -5 -2
-9 -8 -9 -9 -1 -9 17 0 46 7 19 23 14 30 -8z m-22 -154 c2 -73 1 -75 -18 -62
-16 11 -19 22 -16 62 2 27 8 52 15 56 6 4 7 8 3 8 -5 0 -5 5 -2 11 12 19 16 2
18 -75z m207 24 c0 -5 -4 -10 -10 -10 -5 0 -10 5 -10 10 0 6 5 10 10 10 6 0
10 -4 10 -10z m-408 -62 c-9 -9 -15 -9 -24 0 -9 9 -7 12 12 12 19 0 21 -3 12
-12z m89 -28 c21 0 39 5 39 11 0 5 5 7 10 4 24 -15 6 -25 -45 -25 -54 0 -55 1
-54 28 2 23 2 24 6 5 4 -19 11 -23 44 -23z m149 25 c-7 -8 -16 -15 -21 -15 -5
0 -9 7 -9 15 0 9 9 15 21 15 18 0 19 -2 9 -15z m-1280 -5 c0 -5 -7 -10 -16
-10 -8 0 -12 5 -9 10 3 6 10 10 16 10 5 0 9 -4 9 -10z m-99 -23 c-1 -12 -15
-9 -19 4 -3 6 1 10 8 8 6 -3 11 -8 11 -12z m1457 1 c-6 -18 -28 -21 -28 -4 0
9 7 16 16 16 9 0 14 -5 12 -12z m-1355 -137 c-3 -12 -11 -17 -19 -14 -17 6
-18 20 -1 26 22 9 25 7 20 -12z m21 -57 c3 -8 2 -12 -4 -9 -6 3 -10 10 -10 16
0 14 7 11 14 -7z m1386 -74 c0 -5 -5 -10 -11 -10 -5 0 -7 5 -4 10 3 6 8 10 11
10 2 0 4 -4 4 -10z m-1370 -21 c0 -6 -4 -7 -10 -4 -5 3 -10 11 -10 16 0 6 5 7
10 4 6 -3 10 -11 10 -16z m-233 -72 c3 -4 -8 -7 -26 -7 -42 0 -72 -16 -65 -35
4 -9 0 -15 -10 -15 -22 0 -20 15 7 42 22 22 78 31 94 15z m58 -27 c3 -5 -3
-10 -14 -10 -12 0 -21 5 -21 10 0 6 6 10 14 10 8 0 18 -4 21 -10z m63 -35 c6
-5 -11 -35 -20 -35 -6 0 -8 6 -5 14 3 8 -1 17 -9 20 -8 3 -14 10 -14 16 0 9
30 0 48 -15z m28 -39 c-3 -14 -2 -27 3 -31 5 -3 12 7 14 22 4 21 4 20 3 -7 -1
-29 -5 -36 -25 -38 -19 -3 -22 0 -17 13 3 9 6 28 6 41 0 13 5 24 11 24 7 0 9
-10 5 -24z m-226 -3 c0 -6 3 -20 6 -30 5 -17 5 -17 -6 0 -6 9 -20 17 -30 17
-11 0 -20 6 -20 14 0 9 10 13 25 12 14 0 25 -6 25 -13z m545 -21 c-6 -7 -35
18 -35 31 0 5 9 2 20 -8 11 -10 18 -20 15 -23z m-387 -54 c-1 -50 -2 -54 -5
-20 -4 39 -6 42 -33 42 -27 0 -29 -3 -32 -42 -3 -39 -6 -43 -31 -46 -40 -5
-23 -22 22 -22 21 0 67 -3 102 -7 l64 -6 -35 -12 -35 -12 55 -10 c44 -8 9 -10
-171 -11 -209 -1 -227 0 -223 16 1 9 6 34 9 55 5 28 11 37 26 37 11 0 17 5 14
10 -3 6 3 10 14 10 12 0 21 5 21 10 0 6 -11 10 -25 10 -14 0 -25 4 -25 9 0 5
11 8 25 7 20 -1 27 -9 37 -41 12 -38 15 -40 53 -41 l40 -1 -38 4 c-35 4 -38 7
-33 28 3 13 12 37 18 52 l12 28 4 -32 c2 -20 8 -30 16 -27 6 2 23 -7 36 -21
13 -14 27 -25 32 -25 4 0 8 24 8 54 l0 55 38 4 c20 2 38 4 40 5 1 1 1 -26 0
-60z m152 32 c0 -5 -4 -10 -10 -10 -5 0 -10 5 -10 10 0 6 5 10 10 10 6 0 10
-4 10 -10z m-63 -75 c-7 -17 -37 -21 -37 -5 0 6 7 10 15 10 8 0 15 5 15 12 0
6 3 9 6 5 4 -3 4 -13 1 -22z m183 -19 c0 -8 -4 -18 -10 -21 -5 -3 -10 -4 -10
-1 0 2 -3 11 -6 20 -4 11 -1 16 10 16 9 0 16 -6 16 -14z m556 -12 c13 6 24 14
24 19 0 4 5 7 10 7 6 0 8 -11 4 -25 -5 -21 -3 -25 14 -25 27 0 37 -17 14 -24
-10 -3 -49 -8 -87 -11 -73 -5 -137 -14 -144 -21 -2 -2 -10 1 -18 7 -10 9 -13
8 -13 -1 0 -8 -12 -10 -42 -5 -53 9 -64 18 -42 36 16 12 17 12 12 -1 -4 -12 1
-16 21 -17 14 -1 20 1 14 4 -21 8 -14 25 7 18 25 -8 26 3 3 22 -13 10 -14 13
-3 10 8 -2 24 3 34 12 11 9 16 11 13 4 -5 -8 9 -11 50 -10 32 1 50 3 41 5 -10
2 -18 7 -18 12 0 5 18 1 41 -9 32 -15 45 -16 65 -7z m-763 -1 c-13 -2 -33 -2
-45 0 -13 2 -3 4 22 4 25 0 35 -2 23 -4z m854 -9 c-3 -3 -12 -4 -19 -1 -8 3
-5 6 6 6 11 1 17 -2 13 -5z m-1267 -14 c0 -5 -2 -10 -4 -10 -3 0 -8 5 -11 10
-3 6 -1 10 4 10 6 0 11 -4 11 -10z m705 -29 c3 -5 1 -12 -5 -16 -5 -3 -10 1
-10 9 0 18 6 21 15 7z m-705 -11 c0 -5 -4 -10 -10 -10 -5 0 -10 5 -10 10 0 6
5 10 10 10 6 0 10 -4 10 -10z m507 -6 c-3 -3 -12 -4 -19 -1 -8 3 -5 6 6 6 11
1 17 -2 13 -5z m86 -11 c-7 -2 -19 -2 -25 0 -7 3 -2 5 12 5 14 0 19 -2 13 -5z
m-376 -283 c6 0 13 -10 15 -22 2 -13 11 -24 22 -26 12 -3 17 1 14 9 -6 18 19
42 33 33 8 -5 8 -9 -1 -14 -7 -4 -9 -13 -6 -19 8 -13 56 -15 56 -2 0 4 11 6
24 4 13 -3 27 0 30 6 8 13 46 15 46 3 0 -4 -6 -14 -12 -21 -11 -11 -7 -12 19
-6 19 4 59 0 98 -10 73 -19 115 -14 115 13 0 14 4 13 18 -6 20 -26 32 -27 131
-19 62 5 85 -2 89 -28 2 -14 92 -19 92 -6 0 6 5 11 10 11 6 0 10 -7 10 -15 0
-21 20 -19 20 3 1 15 2 15 16 -3 16 -21 83 -29 96 -10 4 5 14 3 25 -6 10 -9
32 -23 50 -31 31 -15 32 -15 38 9 7 28 31 25 28 -4 -3 -25 64 -57 101 -47 32
8 105 -20 124 -47 18 -26 59 -42 101 -40 26 1 32 -1 28 -14 -8 -19 33 -21 51
-3 9 9 12 6 12 -15 0 -29 23 -37 37 -13 7 12 11 12 26 1 16 -11 16 -13 2 -19
-9 -3 -13 -10 -10 -16 10 -17 55 -11 83 11 23 18 27 19 30 5 4 -20 22 -21 22
-1 0 20 18 19 22 0 2 -12 20 -17 78 -19 71 -4 76 -2 97 23 21 24 22 25 16 4
-5 -21 -2 -23 36 -23 35 0 41 3 41 22 l0 21 23 -21 c13 -12 31 -22 40 -22 9 0
17 -6 17 -12 0 -7 5 -5 11 5 13 23 29 22 29 -3 0 -11 5 -20 11 -20 6 0 9 -7 5
-15 -3 -9 0 -15 9 -15 8 0 15 -5 15 -11 0 -6 -10 -9 -22 -7 -15 2 -22 9 -20
20 1 9 -2 19 -8 23 -5 3 -10 -1 -10 -9 0 -9 -4 -16 -10 -16 -23 0 -7 -21 20
-26 35 -8 40 -23 8 -25 l-23 -2 23 -4 c12 -2 20 -9 17 -14 -4 -5 1 -12 10 -15
12 -5 13 -9 4 -20 -8 -10 -9 -18 0 -27 6 -8 8 -16 5 -20 -3 -3 4 -15 15 -26
12 -12 21 -27 21 -35 0 -8 5 -16 10 -18 6 -2 14 -29 17 -60 5 -50 3 -58 -13
-64 -11 -4 -30 -18 -43 -31 -13 -13 -34 -23 -47 -23 -25 0 -40 -15 -24 -25 17
-11 3 -21 -33 -23 -24 -2 -37 2 -41 13 -5 13 -8 13 -26 -5 -11 -11 -27 -20
-35 -20 -8 0 -15 -7 -15 -17 0 -15 1 -15 18 0 21 20 58 22 68 5 5 -8 0 -9 -16
-5 -17 4 -23 1 -27 -14 -4 -14 -12 -19 -24 -16 -14 4 -19 0 -19 -14 0 -10 -7
-19 -15 -19 -19 0 -19 -14 1 -34 14 -14 14 -16 0 -16 -18 0 -39 36 -40 69 -1
34 -26 40 -26 7 0 -15 -6 -26 -14 -26 -9 0 -12 8 -8 25 2 14 8 25 13 25 14 0
11 20 -5 36 -16 16 -51 19 -41 4 3 -6 1 -10 -4 -10 -6 0 -11 -7 -11 -15 0 -8
-7 -15 -15 -15 -8 0 -15 -4 -15 -10 0 -5 -9 -10 -19 -10 -27 0 -34 -28 -10
-40 10 -6 24 -8 29 -5 5 3 11 1 14 -4 9 -14 -87 -19 -101 -5 -15 15 -17 54 -3
54 6 0 10 5 10 10 0 6 -9 10 -20 10 -11 0 -20 -4 -20 -10 0 -5 -10 -10 -21
-10 -15 0 -20 5 -17 18 4 15 -1 17 -35 13 -23 -2 -42 1 -46 8 -7 10 -53 15
-131 12 -29 -1 -57 28 -39 40 7 4 -7 10 -30 14 -22 4 -41 11 -41 16 0 5 -10 9
-22 9 -13 0 -30 5 -38 10 -11 7 -17 5 -22 -8 -6 -15 -8 -14 -14 6 -7 26 -22
29 -31 6 -5 -15 -7 -15 -15 0 -7 12 -14 13 -35 5 -18 -7 -30 -6 -37 1 -8 8 -4
12 12 16 12 4 22 10 22 14 0 23 -80 70 -118 70 -9 0 -26 10 -39 22 -18 16 -26
19 -32 10 -5 -9 -14 -9 -39 0 -18 7 -32 16 -32 20 0 4 -7 8 -15 8 -18 0 -20
-16 -2 -24 6 -3 0 -4 -14 -1 -19 3 -29 0 -33 -11 -3 -8 -10 -12 -16 -9 -6 4
-17 -9 -25 -28 -19 -46 -43 -66 -55 -46 -7 10 -4 15 8 18 16 3 31 19 32 31 0
3 -18 5 -40 5 -33 0 -39 -3 -34 -17 4 -15 -1 -18 -34 -18 -22 0 -55 -2 -73 -5
-19 -3 -28 -2 -21 1 16 7 -3 34 -24 34 -8 0 -14 5 -14 10 0 7 -7 7 -20 0 -12
-6 -30 -8 -41 -5 -16 5 -18 9 -8 21 6 8 9 18 5 22 -4 4 -16 -3 -26 -15 -10
-13 -25 -23 -34 -23 -24 0 -19 -17 7 -25 20 -6 20 -8 3 -12 -10 -3 -22 0 -26
7 -6 9 -13 9 -28 1 -26 -14 -42 -14 -42 -1 0 6 6 10 13 10 8 0 22 9 32 20 20
22 14 26 -14 8 -15 -9 -26 -9 -44 -1 -17 8 -28 8 -35 1 -12 -12 -46 -7 -44 7
0 6 11 13 24 17 l23 6 -23 1 c-13 1 -38 13 -57 27 l-34 25 -17 -26 c-15 -24
-19 -25 -29 -12 -7 10 -20 14 -33 10 -15 -3 -24 0 -28 12 -5 13 -9 14 -15 4
-4 -7 -3 -19 3 -26 8 -10 6 -13 -6 -13 -15 0 -22 29 -17 68 2 10 -4 12 -18 7
-16 -5 -20 -3 -15 9 4 11 1 16 -10 16 -14 0 -16 6 -10 36 4 22 3 35 -3 31 -5
-3 -17 40 -27 96 -25 144 -36 205 -48 257 -6 25 -11 61 -12 80 -1 19 -4 37 -8
40 -3 3 25 5 62 5 43 0 74 5 82 13 7 7 22 11 33 8 11 -3 25 -6 32 -6z m920
-106 c-3 -3 -12 -4 -19 -1 -8 3 -5 6 6 6 11 1 17 -2 13 -5z m-2042 -274 c-3
-5 -10 -10 -16 -10 -5 0 -9 5 -9 10 0 6 7 10 16 10 8 0 12 -4 9 -10z m-85 -20
c0 -5 -4 -10 -10 -10 -5 0 -10 5 -10 10 0 6 5 10 10 10 6 0 10 -4 10 -10z
m1038 -195 c-3 -3 -9 2 -12 12 -6 14 -5 15 5 6 7 -7 10 -15 7 -18z m-2081 -46
c-9 -6 -14 -15 -11 -21 4 -7 2 -8 -4 -4 -16 9 -3 36 17 36 14 -1 14 -2 -2 -11z
m2483 -73 c0 -3 -4 -8 -10 -11 -5 -3 -10 -1 -10 4 0 6 5 11 10 11 6 0 10 -2
10 -4z m-35 -26 c3 -5 -1 -10 -9 -10 -8 0 -18 5 -21 10 -3 6 1 10 9 10 8 0 18
-4 21 -10z m530 -40 c0 -40 0 -40 -16 -18 -13 17 -14 26 -6 40 18 27 22 22 22
-22z m65 -13 c10 -4 8 -6 -7 -6 -16 -1 -23 5 -23 17 0 10 3 13 8 6 4 -6 14
-14 22 -17z m30 -67 c0 -13 -7 -20 -20 -20 -13 0 -20 7 -20 20 0 13 7 20 20
20 13 0 20 -7 20 -20z m37 -12 c-3 -7 -5 -2 -5 12 0 14 2 19 5 13 2 -7 2 -19
0 -25z m-510 16 c-3 -3 -12 -4 -19 -1 -8 3 -5 6 6 6 11 1 17 -2 13 -5z m333
-29 c10 -13 9 -15 -8 -15 -15 0 -20 5 -16 15 4 8 7 15 9 15 1 0 8 -7 15 -15z
m285 -5 c3 -5 1 -10 -4 -10 -6 0 -11 5 -11 10 0 6 2 10 4 10 3 0 8 -4 11 -10z
m-37 -27 c-5 -23 -23 -20 -26 4 -3 18 0 21 13 17 9 -4 15 -13 13 -21z m1122 7
c0 -5 -7 -10 -16 -10 -8 0 -12 5 -9 10 3 6 10 10 16 10 5 0 9 -4 9 -10z m-606
-15 c3 -8 1 -15 -4 -15 -6 0 -10 7 -10 15 0 8 2 15 4 15 2 0 6 -7 10 -15z
m114 -62 c-10 -2 -26 -2 -35 0 -10 3 -2 5 17 5 19 0 27 -2 18 -5z m-738 -103
c0 -5 24 -10 53 -10 28 0 93 -7 142 -15 50 -8 94 -15 99 -15 5 0 4 -6 -2 -12
-8 -10 6 -13 66 -13 43 0 85 -3 94 -7 27 -11 5 -59 -50 -113 -70 -67 -154
-103 -310 -130 -157 -27 -523 -48 -528 -30 -4 13 19 43 36 47 8 2 31 25 53 51
21 26 65 69 98 94 32 25 59 50 59 55 0 5 5 6 10 3 6 -3 10 1 10 9 0 9 9 16 20
16 11 0 20 3 20 8 0 9 74 42 95 42 8 0 15 7 15 15 0 8 5 15 10 15 6 0 10 -4
10 -10z m1580 -531 c0 -6 -4 -7 -10 -4 -5 3 -10 11 -10 16 0 6 5 7 10 4 6 -3
10 -11 10 -16z"/>
<path d="M8620 4916 c0 -2 7 -7 16 -10 8 -3 12 -2 9 4 -6 10 -25 14 -25 6z"/>
<path d="M10420 4365 c-23 -24 -23 -25 -3 -25 11 0 25 -10 31 -22 9 -20 11
-17 11 25 1 53 -6 57 -39 22z"/>
<path d="M10482 4243 c2 -10 13 -19 26 -21 17 -3 22 2 22 17 0 16 -6 21 -26
21 -19 0 -25 -5 -22 -17z"/>
<path d="M10180 4196 c0 -9 7 -16 16 -16 9 0 14 5 12 12 -6 18 -28 21 -28 4z"/>
<path d="M10625 3910 c3 -5 8 -10 11 -10 2 0 4 5 4 10 0 6 -5 10 -11 10 -5 0
-7 -4 -4 -10z"/>
<path d="M10605 3860 c-3 -5 1 -10 9 -10 8 0 18 5 21 10 3 6 -1 10 -9 10 -8 0
-18 -4 -21 -10z"/>
<path d="M10538 3853 c7 -3 16 -2 19 1 4 3 -2 6 -13 5 -11 0 -14 -3 -6 -6z"/>
<path d="M10568 3833 c7 -3 16 -2 19 1 4 3 -2 6 -13 5 -11 0 -14 -3 -6 -6z"/>
<path d="M10520 3765 c0 -8 5 -15 10 -15 6 0 10 7 10 15 0 8 -4 15 -10 15 -5
0 -10 -7 -10 -15z"/>
<path d="M10500 3710 c0 -5 5 -10 10 -10 6 0 10 5 10 10 0 6 -4 10 -10 10 -5
0 -10 -4 -10 -10z"/>
<path d="M10541 3701 c-10 -6 -10 -10 -1 -16 13 -8 24 -1 19 14 -3 6 -10 7
-18 2z"/>
<path d="M10540 3451 c0 -6 5 -13 10 -16 6 -3 10 1 10 9 0 9 -4 16 -10 16 -5
0 -10 -4 -10 -9z"/>
<path d="M10387 3406 c-4 -10 -5 -21 -2 -24 9 -9 17 6 13 25 -3 17 -4 17 -11
-1z"/>
<path d="M10446 3405 c-9 -23 -8 -25 9 -25 17 0 19 9 6 28 -7 11 -10 10 -15
-3z"/>
<path d="M10500 3143 c0 -18 5 -33 10 -33 13 0 13 30 0 50 -7 11 -10 7 -10
-17z"/>
<path d="M10460 3103 c0 -5 7 -17 15 -27 15 -20 20 -10 9 18 -6 16 -24 22 -24
9z"/>
<path d="M10510 3011 c0 -5 -7 -17 -16 -25 -14 -15 -13 -16 15 -16 17 0 31 -4
31 -10 0 -5 -5 -10 -11 -10 -17 0 -1 -17 22 -23 19 -5 20 -2 15 31 -3 20 -5
43 -6 50 0 14 -50 17 -50 3z"/>
<path d="M9063 2143 c9 -2 23 -2 30 0 6 3 -1 5 -18 5 -16 0 -22 -2 -12 -5z"/>
<path d="M9175 2120 c3 -5 10 -10 16 -10 5 0 9 5 9 10 0 6 -7 10 -16 10 -8 0
-12 -4 -9 -10z"/>
<path d="M8990 2110 c0 -5 5 -10 10 -10 6 0 10 5 10 10 0 6 -4 10 -10 10 -5 0
-10 -4 -10 -10z"/>
<path d="M9088 2113 c6 -2 18 -2 25 0 6 3 1 5 -13 5 -14 0 -19 -2 -12 -5z"/>
<path d="M9936 2136 c21 -15 30 -14 19 3 -3 6 -14 11 -23 11 -13 0 -13 -2 4
-14z"/>
<path d="M9073 1783 c-7 -2 -13 -9 -13 -14 0 -5 9 -4 21 3 17 11 22 10 30 -5
6 -9 15 -15 20 -11 14 8 -9 34 -30 33 -9 0 -22 -3 -28 -6z"/>
<path d="M9476 1723 c-11 -11 -6 -23 9 -23 8 0 15 4 15 9 0 13 -16 22 -24 14z"/>
<path d="M9166 1205 c4 -8 10 -12 15 -9 14 8 10 24 -6 24 -9 0 -12 -6 -9 -15z"/>
<path d="M9990 1150 c0 -5 5 -10 11 -10 5 0 7 5 4 10 -3 6 -8 10 -11 10 -2 0
-4 -4 -4 -10z"/>
<path d="M9393 1133 c9 -2 23 -2 30 0 6 3 -1 5 -18 5 -16 0 -22 -2 -12 -5z"/>
<path d="M9703 1102 c-13 -2 -23 -8 -23 -13 0 -13 37 -11 45 2 9 14 5 16 -22
11z"/>
<path d="M10260 1040 c0 -11 4 -20 9 -20 5 0 7 9 4 20 -3 11 -7 20 -9 20 -2 0
-4 -9 -4 -20z"/>
<path d="M10528 983 c6 -2 18 -2 25 0 6 3 1 5 -13 5 -14 0 -19 -2 -12 -5z"/>
<path d="M10802 920 c0 -14 2 -19 5 -12 2 6 2 18 0 25 -3 6 -5 1 -5 -13z"/>
<path d="M10990 910 c0 -5 5 -10 10 -10 6 0 10 5 10 10 0 6 -4 10 -10 10 -5 0
-10 -4 -10 -10z"/>
<path d="M10100 440 c0 -5 5 -10 10 -10 6 0 10 5 10 10 0 6 -4 10 -10 10 -5 0
-10 -4 -10 -10z"/>
<path d="M10025 430 c-19 -8 -19 -9 2 -9 12 -1 25 4 28 9 7 12 -2 12 -30 0z"/>
<path d="M9660 389 c0 -5 5 -7 10 -4 6 3 10 8 10 11 0 2 -4 4 -10 4 -5 0 -10
-5 -10 -11z"/>
<path d="M9723 393 c9 -2 23 -2 30 0 6 3 -1 5 -18 5 -16 0 -22 -2 -12 -5z"/>
<path d="M7853 7513 c9 -2 23 -2 30 0 6 3 -1 5 -18 5 -16 0 -22 -2 -12 -5z"/>
<path d="M7793 7463 c-15 -5 -17 -23 -4 -23 5 0 11 7 15 15 3 8 4 15 3 14 -1
0 -8 -3 -14 -6z"/>
<path d="M8210 7080 c0 -19 3 -21 12 -12 9 9 9 15 0 24 -9 9 -12 7 -12 -12z"/>
<path d="M8050 6812 c0 -16 -5 -23 -17 -21 -37 3 -47 -3 -18 -12 38 -11 63 9
46 37 -10 18 -10 17 -11 -4z"/>
<path d="M7850 6810 c0 -5 21 -10 47 -10 55 0 54 5 -4 14 -27 4 -43 2 -43 -4z"/>
<path d="M7958 6793 c7 -3 16 -2 19 1 4 3 -2 6 -13 5 -11 0 -14 -3 -6 -6z"/>
<path d="M8110 6771 c0 -5 5 -13 10 -16 6 -3 10 -2 10 4 0 5 -4 13 -10 16 -5
3 -10 2 -10 -4z"/>
<path d="M8724 6613 c-23 -27 -21 -65 2 -56 7 3 28 0 45 -6 18 -6 34 -9 37 -6
3 3 -9 10 -26 16 -18 6 -29 16 -26 23 3 7 1 22 -3 33 -8 21 -8 21 -29 -4z"/>
<path d="M8665 6591 c-3 -5 -1 -12 5 -16 5 -3 10 1 10 9 0 18 -6 21 -15 7z"/>
<path d="M8063 6422 c-13 -2 -23 -8 -23 -13 0 -5 -9 -9 -20 -9 -11 0 -20 5
-20 12 0 9 -3 9 -12 0 -8 -8 -15 -8 -24 -1 -19 16 -104 -40 -104 -69 0 -13 -4
-20 -10 -17 -5 3 -10 -3 -10 -14 0 -19 1 -19 25 4 13 14 36 25 50 25 14 0 25
5 25 10 0 6 7 10 16 10 8 0 12 -4 9 -10 -4 -6 10 -10 34 -10 35 0 41 3 47 25
3 14 12 25 19 25 7 0 16 7 19 16 8 20 7 21 -21 16z"/>
<path d="M8460 6318 c-8 -13 -20 -41 -27 -63 -12 -39 -11 -41 19 -65 74 -60
108 -101 108 -130 0 -41 -10 -60 -31 -60 -10 0 -19 -4 -19 -10 0 -12 12 -13
43 -1 16 6 31 25 42 55 15 40 16 52 5 93 -19 73 -40 113 -59 113 -11 0 -22 15
-32 42 -18 50 -29 56 -49 26z"/>
<path d="M7431 6114 c0 -11 3 -14 6 -6 3 7 2 16 -1 19 -3 4 -6 -2 -5 -13z"/>
<path d="M8352 6034 c10 -10 23 -14 34 -10 16 6 16 8 4 16 -8 6 -24 10 -35 10
-18 0 -18 -1 -3 -16z"/>
<path d="M7498 6023 c6 -2 12 -18 12 -33 0 -17 8 -34 18 -42 11 -7 24 -22 30
-34 9 -16 18 -20 44 -16 30 5 32 4 19 -12 -10 -12 -16 -14 -21 -5 -10 15 -18
-1 -13 -26 3 -11 6 -36 7 -55 4 -53 26 -123 44 -142 28 -28 42 -47 42 -55 1
-4 23 -26 51 -48 27 -22 61 -50 75 -62 14 -13 31 -20 40 -16 15 5 15 7 0 15
-11 6 -15 17 -11 31 5 17 4 19 -4 7 -9 -12 -11 -12 -16 3 -5 11 4 31 24 56 25
32 28 39 14 37 -33 -6 -62 11 -56 34 6 23 26 40 22 19 -1 -8 1 -22 5 -31 6
-14 11 -15 26 -6 11 7 16 18 12 27 -5 14 -3 14 11 2 15 -12 17 -11 17 7 0 12
-4 23 -10 27 -5 3 -7 11 -5 18 4 8 -10 12 -44 13 -37 1 -48 -2 -44 -13 3 -7 0
-13 -6 -13 -6 0 -13 11 -17 25 -5 20 -9 23 -20 14 -14 -12 -45 -6 -43 8 6 36
-3 73 -17 73 -12 0 -15 -7 -12 -25 6 -30 -8 -34 -17 -5 -4 11 -10 18 -15 15
-4 -3 -11 2 -14 11 -10 27 -7 44 10 44 8 0 12 -4 9 -10 -3 -6 1 -7 9 -4 9 3
16 15 16 27 0 19 1 19 18 4 10 -10 24 -17 31 -17 8 0 34 -15 60 -33 49 -36
128 -70 142 -61 15 9 -2 33 -19 26 -14 -5 -15 -4 -2 10 8 9 17 14 19 12 2 -2
10 1 18 8 7 6 17 7 21 3 4 -4 1 -10 -5 -12 -20 -7 -15 -30 6 -36 14 -3 18 -1
14 9 -4 12 2 13 28 9 19 -3 42 -8 51 -11 13 -4 16 -1 12 9 -5 14 -33 28 -61
31 -6 1 -24 12 -38 24 -15 13 -35 25 -45 27 -10 2 -33 11 -50 20 -18 9 -41 15
-51 12 -11 -3 -21 -1 -24 3 -3 4 -27 13 -54 20 -78 18 -173 54 -171 64 3 14
-23 26 -55 25 -16 0 -24 -3 -17 -6z m357 -181 c-3 -3 -11 0 -18 7 -9 10 -8 11
6 5 10 -3 15 -9 12 -12z m25 -22 c0 -5 -4 -10 -10 -10 -5 0 -10 5 -10 10 0 6
5 10 10 10 6 0 10 -4 10 -10z"/>
<path d="M6213 5859 c30 -16 55 -19 60 -7 3 10 -6 13 -34 13 -21 0 -33 -2 -26
-6z"/>
<path d="M6380 5866 c0 -2 7 -6 15 -10 8 -3 15 -1 15 4 0 6 -7 10 -15 10 -8 0
-15 -2 -15 -4z"/>
<path d="M6480 5830 c0 -10 41 -31 50 -25 17 11 -2 35 -26 33 -13 -1 -24 -5
-24 -8z"/>
<path d="M8113 5783 c9 -2 23 -2 30 0 6 3 -1 5 -18 5 -16 0 -22 -2 -12 -5z"/>
<path d="M8160 5775 c0 -8 2 -15 4 -15 2 0 6 7 10 15 3 8 1 15 -4 15 -6 0 -10
-7 -10 -15z"/>
<path d="M8193 5776 c-4 -6 -6 -26 -4 -45 l3 -34 -52 5 c-64 6 -52 -9 16 -22
27 -4 106 -19 177 -31 85 -16 127 -27 127 -36 0 -16 5 -16 30 0 17 10 22 9 29
-1 4 -7 14 -12 22 -10 8 2 14 -5 14 -17 0 -11 -4 -20 -10 -20 -5 0 -17 -4 -25
-10 -8 -5 -29 -8 -47 -7 -18 2 -33 -2 -33 -8 0 -7 -6 -8 -19 0 -14 7 -21 6
-24 -3 -3 -9 -7 -9 -18 -1 -8 6 -32 11 -54 9 -22 -1 -44 2 -50 6 -18 13 -89
23 -81 11 3 -6 -2 -13 -13 -17 -21 -6 -18 -45 4 -45 8 0 11 8 8 19 -6 22 9 34
31 25 21 -8 21 -24 -1 -24 -15 0 -15 -1 0 -18 13 -14 14 -21 5 -30 -7 -7 -17
-12 -23 -12 -5 0 -15 -10 -20 -22 -6 -13 -20 -24 -31 -26 -12 -2 -24 -12 -27
-22 -7 -27 50 -34 154 -20 106 15 178 40 212 74 14 14 33 26 42 26 8 0 15 6
15 14 0 8 17 25 38 37 20 13 42 30 48 37 6 8 34 16 65 18 68 5 82 11 76 28 -3
8 -1 17 6 19 11 4 -27 10 -131 22 -65 8 -94 16 -124 36 -14 11 -33 19 -42 19
-9 0 -24 4 -34 9 -9 4 -32 13 -49 20 -65 22 -98 34 -118 42 -34 13 -86 16 -92
5z m37 -30 c0 -3 -4 -8 -10 -11 -5 -3 -10 -1 -10 4 0 6 5 11 10 11 6 0 10 -2
10 -4z m0 -61 c0 -5 -5 -3 -10 5 -5 8 -10 20 -10 25 0 6 5 3 10 -5 5 -8 10
-19 10 -25z m47 -161 c-3 -3 -12 -4 -19 -1 -8 3 -5 6 6 6 11 1 17 -2 13 -5z"/>
<path d="M7930 5771 c0 -8 68 -45 103 -55 22 -7 22 -38 -1 -59 -22 -20 -43
-22 -59 -6 -7 7 -19 9 -28 5 -15 -5 -15 -7 -1 -22 9 -8 22 -12 28 -8 7 4 10 4
6 -1 -11 -11 11 -35 31 -35 9 0 28 -6 43 -14 22 -12 27 -12 32 -1 3 9 0 12 -9
8 -11 -3 -15 2 -14 18 0 13 -1 31 -2 39 -5 31 1 61 11 55 6 -3 10 -2 10 4 0 5
-9 13 -20 16 -11 4 -18 11 -15 16 4 5 -3 10 -14 10 -37 2 -41 4 -40 14 0 9
-26 23 -48 24 -7 1 -13 -3 -13 -8z m108 -157 c-9 -9 -21 -13 -27 -9 -16 9 -2
28 15 21 8 -3 14 0 14 6 0 6 3 8 7 4 4 -3 0 -14 -9 -22z"/>
<path d="M6378 5743 c7 -3 16 -2 19 1 4 3 -2 6 -13 5 -11 0 -14 -3 -6 -6z"/>
<path d="M8138 5713 c7 -3 16 -2 19 1 4 3 -2 6 -13 5 -11 0 -14 -3 -6 -6z"/>
<path d="M8840 5677 c-8 -23 -15 -48 -16 -54 -4 -20 14 -15 26 7 6 11 7 20 3
20 -4 0 -2 5 5 12 14 14 16 44 3 52 -4 3 -14 -14 -21 -37z"/>
<path d="M6370 5692 c0 -12 19 -26 26 -19 2 2 -2 10 -11 17 -9 8 -15 8 -15 2z"/>
<path d="M8236 5607 c3 -10 9 -15 12 -12 3 3 0 11 -7 18 -10 9 -11 8 -5 -6z"/>
<path d="M8100 5597 c27 -15 36 -14 25 2 -3 6 -16 11 -28 11 -21 0 -21 -1 3
-13z"/>
<path d="M6475 5590 c3 -5 8 -10 11 -10 2 0 4 5 4 10 0 6 -5 10 -11 10 -5 0
-7 -4 -4 -10z"/>
<path d="M6157 5583 c-4 -3 -7 -11 -7 -17 0 -6 5 -5 12 2 6 6 9 14 7 17 -3 3
-9 2 -12 -2z"/>
<path d="M8145 5570 c3 -5 14 -10 23 -10 15 0 15 2 2 10 -20 13 -33 13 -25 0z"/>
<path d="M5895 5560 c3 -5 11 -10 16 -10 6 0 7 5 4 10 -3 6 -11 10 -16 10 -6
0 -7 -4 -4 -10z"/>
<path d="M8098 5563 c7 -3 16 -2 19 1 4 3 -2 6 -13 5 -11 0 -14 -3 -6 -6z"/>
<path d="M6170 5540 c0 -11 5 -20 10 -20 6 0 10 9 10 20 0 11 -4 20 -10 20 -5
0 -10 -9 -10 -20z"/>
<path d="M5355 5530 c3 -5 11 -10 16 -10 6 0 7 5 4 10 -3 6 -11 10 -16 10 -6
0 -7 -4 -4 -10z"/>
<path d="M5314 5509 c-8 -14 11 -33 25 -25 11 7 4 36 -9 36 -5 0 -12 -5 -16
-11z"/>
<path d="M6152 5470 c0 -14 2 -19 5 -12 2 6 2 18 0 25 -3 6 -5 1 -5 -13z"/>
<path d="M5360 5460 c0 -5 5 -10 11 -10 5 0 7 5 4 10 -3 6 -8 10 -11 10 -2 0
-4 -4 -4 -10z"/>
<path d="M6570 5415 c-7 -14 -11 -28 -7 -31 9 -9 37 22 37 40 0 24 -15 19 -30
-9z"/>
<path d="M8100 5404 c0 -8 5 -12 10 -9 6 3 10 10 10 16 0 5 -4 9 -10 9 -5 0
-10 -7 -10 -16z"/>
<path d="M6660 5357 c0 -19 16 -31 24 -18 3 5 -1 14 -9 21 -12 10 -15 10 -15
-3z"/>
<path d="M6630 5250 c0 -5 6 -10 14 -10 8 0 16 -7 20 -15 7 -20 26 -19 26 0 0
9 -12 20 -26 25 -32 12 -34 12 -34 0z"/>
<path d="M6730 5040 c0 -19 3 -21 12 -12 9 9 9 15 0 24 -9 9 -12 7 -12 -12z"/>
<path d="M6760 4996 c0 -9 5 -16 10 -16 6 0 10 4 10 9 0 6 -4 13 -10 16 -5 3
-10 -1 -10 -9z"/>
<path d="M7119 4392 c-19 -21 -53 -54 -77 -75 -52 -46 -45 -49 11 -4 61 48 93
80 100 100 9 24 5 22 -34 -21z"/>
<path d="M4598 4143 c7 -3 16 -2 19 1 4 3 -2 6 -13 5 -11 0 -14 -3 -6 -6z"/>
<path d="M4598 4103 c7 -3 16 -2 19 1 4 3 -2 6 -13 5 -11 0 -14 -3 -6 -6z"/>
<path d="M6657 3966 c-9 -22 2 -51 24 -64 16 -10 19 -9 19 3 0 8 5 15 10 15
17 0 11 37 -7 44 -10 3 -23 8 -29 11 -6 3 -14 -1 -17 -9z"/>
<path d="M6153 3663 c-59 -13 -63 -16 -63 -42 0 -16 7 -34 15 -41 18 -15 89
-18 150 -7 38 7 39 7 20 -8 -19 -16 -19 -16 10 -9 37 8 55 29 55 65 0 14 -6
31 -12 36 -23 19 -111 22 -175 6z m0 -75 c6 -4 8 -10 4 -14 -13 -13 -45 26
-39 48 5 21 5 21 14 -2 5 -14 14 -28 21 -32z"/>
<path d="M6400 3650 c0 -5 7 -10 15 -10 8 0 15 5 15 10 0 6 -7 10 -15 10 -8 0
-15 -4 -15 -10z"/>
<path d="M5061 3621 l-23 -6 26 -14 c14 -8 26 -20 26 -28 0 -7 5 -13 10 -13 6
0 10 5 10 10 0 6 5 10 11 10 6 0 9 -6 7 -12 -3 -7 11 -18 31 -25 70 -25 127
-9 115 30 -7 22 -6 22 14 4 20 -18 20 -18 15 2 -3 11 -11 25 -19 31 -15 13
-187 22 -223 11z"/>
<path d="M5008 3613 c7 -3 16 -2 19 1 4 3 -2 6 -13 5 -11 0 -14 -3 -6 -6z"/>
<path d="M5154 3515 c11 -8 24 -15 30 -15 5 0 1 7 -10 15 -10 8 -23 14 -29 14
-5 0 -1 -6 9 -14z"/>
<path d="M5260 3510 c-13 -8 -12 -10 3 -10 9 0 17 5 17 10 0 12 -1 12 -20 0z"/>
<path d="M6210 2528 l-25 -20 25 6 c14 3 40 6 58 6 21 0 31 4 27 11 -4 5 -12
8 -18 6 -7 -2 -19 -1 -27 4 -10 5 -25 0 -40 -13z"/>
<path d="M6335 2520 c27 -12 43 -12 25 0 -8 5 -22 9 -30 9 -10 0 -8 -3 5 -9z"/>
<path d="M5763 2433 c15 -2 39 -2 55 0 15 2 2 4 -28 4 -30 0 -43 -2 -27 -4z"/>
<path d="M5695 2420 c3 -5 10 -10 16 -10 5 0 9 5 9 10 0 6 -7 10 -16 10 -8 0
-12 -4 -9 -10z"/>
<path d="M6553 2413 c9 -2 23 -2 30 0 6 3 -1 5 -18 5 -16 0 -22 -2 -12 -5z"/>
<path d="M4855 2400 c-19 -8 -19 -9 3 -9 12 -1 22 4 22 9 0 6 -1 10 -2 9 -2 0
-12 -4 -23 -9z"/>
<path d="M7220 2388 c0 -40 -23 -53 -68 -39 -37 11 -112 11 -112 0 0 -4 7 -12
16 -20 12 -10 22 -10 47 -1 17 6 33 9 36 7 2 -3 -1 -5 -7 -5 -7 0 -12 -4 -12
-9 0 -5 18 -8 40 -8 22 1 40 5 40 10 0 4 4 7 10 7 6 0 6 -9 0 -25 -8 -22 -7
-25 13 -26 12 -1 4 -5 -18 -9 -23 -4 -30 -8 -17 -9 15 0 21 -5 16 -13 -4 -6
-3 -8 3 -5 6 4 22 -2 36 -13 14 -11 36 -20 50 -20 27 0 44 -25 24 -34 -12 -6
31 0 68 10 16 4 17 3 5 -5 -12 -8 -8 -11 18 -11 17 0 32 -5 32 -11 0 -8 6 -7
17 2 13 11 17 11 20 2 3 -7 15 -13 27 -13 12 0 33 -13 46 -28 15 -17 32 -27
41 -25 11 3 20 -3 24 -16 3 -12 11 -19 16 -16 19 12 8 35 -23 49 -44 19 -118
86 -170 155 -63 84 -90 111 -110 111 -10 0 -18 -4 -18 -10 0 -5 7 -7 15 -4 8
4 15 1 15 -5 0 -6 -5 -11 -10 -11 -21 0 -85 31 -97 47 -12 15 -13 14 -13 -9z
m46 -55 c-10 -10 -19 5 -10 18 6 11 8 11 12 0 2 -7 1 -15 -2 -18z"/>
<path d="M7010 2320 c-13 -8 -13 -10 2 -10 9 0 20 5 23 10 8 13 -5 13 -25 0z"/>
<path d="M7150 2290 c0 -5 6 -10 14 -10 8 0 18 5 21 10 3 6 -3 10 -14 10 -12
0 -21 -4 -21 -10z"/>
<path d="M5550 2272 c0 -7 -8 -12 -17 -12 -15 0 -14 -2 3 -15 26 -19 31 -19
29 5 -1 21 -15 41 -15 22z"/>
<path d="M4086 2029 c-23 -27 -15 -35 9 -9 10 11 16 22 14 25 -3 2 -13 -5 -23
-16z"/>
<path d="M7650 2015 c0 -10 33 -67 51 -90 9 -11 20 -30 24 -43 3 -12 16 -27
27 -33 28 -15 22 1 -37 91 -44 65 -65 90 -65 75z"/>
<path d="M3908 1848 c-150 -150 -404 -392 -473 -450 -22 -18 -66 -59 -97 -90
-32 -32 -61 -58 -66 -58 -12 0 -52 -35 -52 -45 0 -4 -19 -29 -41 -54 -84 -94
-95 -107 -119 -141 -13 -19 -40 -54 -59 -76 -20 -23 -54 -63 -76 -89 -48 -57
-107 -115 -117 -115 -5 0 -8 -5 -8 -10 0 -11 -53 -70 -64 -70 -25 0 -191 -217
-238 -310 -10 -19 -23 -44 -30 -55 -7 -10 -23 -36 -36 -57 l-22 -38 285 0 285
0 2 88 c1 48 0 106 -1 128 -3 48 18 124 47 174 33 57 82 161 82 176 0 8 4 14
9 14 5 0 14 14 21 30 7 17 16 30 20 30 4 0 15 16 25 36 20 43 41 68 117 142
69 66 112 94 134 85 13 -5 15 -2 10 15 -6 18 -2 23 21 28 15 4 30 10 33 14 7
9 103 38 180 54 l65 13 -3 94 -4 94 36 42 36 41 -17 51 c-19 60 -9 113 30 149
l24 23 49 -22 c27 -11 96 -36 154 -54 95 -30 190 -72 215 -96 5 -5 16 -9 25
-9 8 0 -3 11 -25 25 -22 13 -34 25 -27 25 6 0 12 5 12 11 0 8 -4 8 -15 -1 -11
-9 -18 -9 -35 3 -11 7 -17 17 -13 20 10 11 25 8 18 -3 -3 -5 1 -10 10 -10 23
0 30 27 11 45 -8 9 -36 42 -62 75 -26 33 -50 60 -55 60 -4 0 -11 9 -14 20 -3
11 -15 20 -26 20 -13 0 -19 7 -19 21 0 15 -5 19 -15 15 -50 -19 -54 39 -6 88
19 20 32 39 28 42 -3 3 -70 -59 -149 -138z"/>
<path d="M7305 1790 c3 -5 1 -10 -4 -10 -6 0 -11 -18 -11 -39 0 -34 -3 -38
-20 -34 -11 3 -20 1 -20 -5 0 -6 22 -10 53 -9 l52 2 -3 40 c-2 22 -11 46 -20
53 -19 14 -36 16 -27 2z m25 -35 c0 -14 -4 -25 -10 -25 -5 0 -10 11 -10 25 0
14 5 25 10 25 6 0 10 -11 10 -25z"/>
<path d="M7380 1790 c0 -5 5 -10 11 -10 5 0 7 5 4 10 -3 6 -8 10 -11 10 -2 0
-4 -4 -4 -10z"/>
<path d="M7260 1750 c0 -5 5 -10 10 -10 6 0 10 5 10 10 0 6 -4 10 -10 10 -5 0
-10 -4 -10 -10z"/>
<path d="M7453 1713 c9 -2 23 -2 30 0 6 3 -1 5 -18 5 -16 0 -22 -2 -12 -5z"/>
<path d="M5670 1699 c-19 -5 -78 -13 -130 -19 -52 -6 -138 -19 -190 -30 -52
-10 -151 -22 -220 -25 -155 -8 -201 -13 -209 -21 -3 -4 23 -4 59 0 36 3 115 9
175 12 61 3 205 21 320 39 116 19 219 33 229 32 10 -1 21 4 23 11 5 14 -6 14
-57 1z"/>
<path d="M7160 1706 c0 -2 9 -6 20 -9 11 -3 20 -1 20 4 0 5 -9 9 -20 9 -11 0
-20 -2 -20 -4z"/>
<path d="M7430 1690 c0 -5 4 -10 9 -10 6 0 13 5 16 10 3 6 -1 10 -9 10 -9 0
-16 -4 -16 -10z"/>
<path d="M7120 1649 c0 -6 -8 -8 -19 -4 -13 4 -20 0 -24 -15 -4 -16 0 -20 17
-20 13 0 31 8 40 19 15 16 15 19 1 24 -8 4 -15 2 -15 -4z"/>
<path d="M6867 1637 c-3 -8 -1 -20 4 -28 6 -10 9 -7 9 14 0 29 -5 35 -13 14z"/>
<path d="M6960 1636 c0 -8 -6 -17 -12 -19 -10 -4 -10 -6 0 -6 6 -1 12 -7 12
-15 0 -8 8 -17 18 -21 16 -6 16 -7 0 -16 -23 -13 -25 -69 -3 -69 20 0 33 35
29 81 -2 27 1 39 12 43 13 5 14 9 4 21 -16 19 -60 20 -60 1z"/>
<path d="M7751 1578 c0 -24 3 -36 6 -28 3 8 9 22 13 30 5 9 2 20 -6 28 -12 11
-14 6 -13 -30z"/>
<path d="M7553 1603 c9 -2 23 -2 30 0 6 3 -1 5 -18 5 -16 0 -22 -2 -12 -5z"/>
<path d="M7088 1583 c6 -2 18 -2 25 0 6 3 1 5 -13 5 -14 0 -19 -2 -12 -5z"/>
<path d="M7520 1576 c0 -10 28 -13 41 -5 10 6 7 9 -13 9 -16 0 -28 -2 -28 -4z"/>
<path d="M5208 1553 c12 -2 32 -2 45 0 12 2 2 4 -23 4 -25 0 -35 -2 -22 -4z"/>
<path d="M7083 1553 c9 -2 23 -2 30 0 6 3 -1 5 -18 5 -16 0 -22 -2 -12 -5z"/>
<path d="M5143 1543 c9 -2 23 -2 30 0 6 3 -1 5 -18 5 -16 0 -22 -2 -12 -5z"/>
<path d="M7795 1540 c-3 -5 -1 -10 4 -10 6 0 11 5 11 10 0 6 -2 10 -4 10 -3 0
-8 -4 -11 -10z"/>
<path d="M6873 1492 c-6 -4 -15 -20 -18 -35 -6 -23 -4 -27 15 -27 11 0 18 4
15 10 -3 5 -1 18 5 29 11 21 1 34 -17 23z"/>
<path d="M7018 1463 c7 -3 16 -2 19 1 4 3 -2 6 -13 5 -11 0 -14 -3 -6 -6z"/>
<path d="M6740 1425 c-10 -12 -7 -15 15 -21 28 -7 52 7 41 25 -10 16 -41 14
-56 -4z"/>
<path d="M6575 1370 c3 -5 8 -10 11 -10 2 0 4 5 4 10 0 6 -5 10 -11 10 -5 0
-7 -4 -4 -10z"/>
<path d="M8128 1373 c7 -3 16 -2 19 1 4 3 -2 6 -13 5 -11 0 -14 -3 -6 -6z"/>
<path d="M5798 1323 c7 -3 16 -2 19 1 4 3 -2 6 -13 5 -11 0 -14 -3 -6 -6z"/>
<path d="M6405 1310 c-18 -8 -17 -9 8 -9 15 -1 27 4 27 9 0 12 -8 12 -35 0z"/>
<path d="M4720 1293 c0 -17 4 -21 18 -16 15 6 15 5 3 -10 -12 -16 -7 -17 75
-15 51 1 68 3 39 5 -78 5 -95 11 -88 30 5 13 2 15 -12 9 -11 -4 -22 -2 -27 6
-5 9 -8 6 -8 -9z"/>
<path d="M5659 1295 c-18 -17 -231 -53 -384 -63 l-100 -7 64 -9 c65 -9 197 8
307 40 28 7 62 14 75 14 13 1 38 7 54 15 25 11 26 14 9 14 -11 1 -23 -1 -25
-4z"/>
<path d="M4940 1250 c25 -8 147 -13 139 -6 -2 2 -40 6 -84 8 -44 3 -69 2 -55
-2z"/>
<path d="M5108 1233 c12 -2 30 -2 40 0 9 3 -1 5 -23 4 -22 0 -30 -2 -17 -4z"/>
<path d="M5560 1209 c0 -5 5 -7 10 -4 6 3 10 8 10 11 0 2 -4 4 -10 4 -5 0 -10
-5 -10 -11z"/>
<path d="M5443 1183 c9 -2 23 -2 30 0 6 3 -1 5 -18 5 -16 0 -22 -2 -12 -5z"/>
<path d="M3473 1095 c-7 -8 -13 -18 -13 -24 0 -5 -6 -12 -12 -14 -10 -4 -10
-6 0 -6 24 -2 52 19 52 39 0 23 -10 25 -27 5z"/>
<path d="M6085 1070 c-3 -5 -15 -10 -26 -10 -11 0 -27 -7 -35 -15 -9 -8 -24
-15 -35 -15 -10 0 -42 -11 -71 -25 -28 -14 -56 -25 -60 -25 -5 0 -27 -9 -49
-19 -22 -11 -54 -22 -72 -26 -18 -3 -41 -10 -52 -15 -34 -15 -174 -40 -234
-41 l-56 -2 45 -7 c25 -4 77 -4 115 0 64 6 108 20 409 130 33 12 70 20 82 17
15 -2 21 0 17 8 -2 7 9 17 27 24 17 6 29 15 25 21 -8 13 -22 13 -30 0z"/>
<path d="M3344 975 c-27 -25 -44 -45 -37 -45 15 0 98 78 91 85 -3 3 -27 -15
-54 -40z"/>
<path d="M5000 933 c0 -25 5 -33 18 -34 12 0 10 -3 -7 -10 -14 -5 -31 -7 -38
-5 -7 3 -13 0 -13 -6 0 -7 19 -9 61 -4 34 3 92 6 128 6 l66 1 -34 14 c-38 17
-64 20 -41 5 12 -8 9 -10 -12 -10 -37 0 -79 20 -105 50 l-23 25 0 -32z"/>
<path d="M6721 946 c2 -2 18 -6 34 -10 22 -5 26 -4 15 4 -14 9 -59 15 -49 6z"/>
<path d="M5255 880 c19 -8 123 -14 114 -6 -2 2 -33 6 -69 9 -40 4 -57 2 -45
-3z"/>
<path d="M3240 869 c0 -5 5 -7 10 -4 6 3 10 8 10 11 0 2 -4 4 -10 4 -5 0 -10
-5 -10 -11z"/>
<path d="M3164 735 c-10 -26 1 -35 13 -10 6 14 7 25 2 25 -5 0 -12 -7 -15 -15z"/>
<path d="M3137 670 c-6 -25 1 -50 14 -50 13 0 11 17 -2 26 -8 4 -8 9 -1 13 6
4 7 12 3 20 -6 9 -10 7 -14 -9z"/>
<path d="M5606 627 c3 -10 9 -15 12 -12 3 3 0 11 -7 18 -10 9 -11 8 -5 -6z"/>
<path d="M3122 598 c2 -6 10 -14 16 -16 7 -2 10 2 6 12 -7 18 -28 22 -22 4z"/>
<path d="M3121 490 c-14 -53 -40 -107 -78 -158 -19 -25 -20 -31 -8 -36 9 -3
15 0 15 9 0 8 4 15 9 15 14 0 0 -41 -15 -47 -23 -9 -16 -23 12 -23 15 0 23 4
19 11 -4 5 0 18 9 28 20 22 11 52 -12 45 -9 -3 -5 2 9 10 15 8 29 24 32 36 9
34 27 22 28 -17 0 -21 8 -67 17 -103 16 -60 20 -65 47 -67 29 -3 29 -2 8 9
-13 6 -23 17 -23 24 0 7 -4 14 -10 16 -5 2 -10 18 -12 36 -1 19 -6 36 -10 38
-3 2 -4 20 -1 39 3 21 1 41 -7 50 -7 9 -10 18 -7 21 3 3 1 19 -3 35 -5 17 -5
31 1 34 11 7 12 45 1 45 -5 0 -14 -23 -21 -50z"/>
<path d="M6912 513 c-2 -40 -16 -75 -37 -96 -9 -10 -12 -17 -6 -17 5 0 19 13
31 30 16 22 20 41 17 72 -3 34 -4 36 -5 11z"/>
<path d="M5815 500 c-3 -5 -1 -10 4 -10 21 0 26 -2 39 -12 6 -6 12 -7 12 -3 0
9 -31 34 -42 35 -4 0 -10 -4 -13 -10z"/>
<path d="M5380 476 c0 -2 8 -10 18 -17 15 -13 16 -12 3 4 -13 16 -21 21 -21
13z"/>
<path d="M10789 463 c-13 -17 -13 -17 6 -3 11 8 22 16 24 17 2 2 0 3 -6 3 -6
0 -17 -8 -24 -17z"/>
<path d="M5990 450 c-11 -7 -5 -8 20 -4 43 8 51 14 19 14 -13 0 -31 -5 -39
-10z"/>
<path d="M4491 434 c0 -11 3 -14 6 -6 3 7 2 16 -1 19 -3 4 -6 -2 -5 -13z"/>
<path d="M10736 425 c-11 -8 -15 -15 -9 -15 6 0 16 7 23 15 16 19 11 19 -14 0z"/>
<path d="M10641 349 c-13 -11 -22 -21 -20 -23 2 -3 15 4 28 15 13 11 22 21 20
23 -2 3 -15 -4 -28 -15z"/>
<path d="M4520 343 c0 -12 5 -34 10 -49 8 -21 8 -29 -2 -36 -10 -5 -8 -8 5 -8
16 0 17 6 11 48 -7 50 -24 82 -24 45z"/>
<path d="M10590 309 c0 -5 5 -7 10 -4 6 3 10 8 10 11 0 2 -4 4 -10 4 -5 0 -10
-5 -10 -11z"/>
<path d="M10501 249 c-13 -11 -22 -22 -19 -24 3 -3 18 6 34 20 16 14 25 25 19
25 -5 -1 -21 -10 -34 -21z"/>
<path d="M3090 250 c0 -5 -9 -10 -20 -10 -12 0 -20 -7 -20 -17 0 -14 -2 -15
-9 -5 -6 10 -10 9 -14 -7 -4 -18 -1 -21 23 -21 23 0 27 4 23 20 -4 14 0 20 11
20 9 0 16 7 16 15 0 8 -2 15 -5 15 -3 0 -5 -4 -5 -10z"/>
<path d="M4534 231 c4 -5 0 -11 -6 -14 -7 -2 -10 -8 -6 -12 11 -12 38 2 38 20
0 8 -7 15 -16 15 -8 0 -13 -4 -10 -9z"/>
<path d="M4554 200 c-5 -5 -25 -10 -44 -13 -19 -2 -3 -4 35 -5 39 0 63 2 55 5
-8 3 -20 9 -26 14 -6 5 -15 4 -20 -1z"/>
<path d="M3278 193 c7 -3 16 -2 19 1 4 3 -2 6 -13 5 -11 0 -14 -3 -6 -6z"/>
</g>
</svg>
